<?xml version="1.0" encoding="utf-8"?>
<!-- Generator: Adobe Illustrator 23.0.0, SVG Export Plug-In . SVG Version: 6.00 Build 0)  -->
<svg version="1.1" id="图层_1" xmlns="http://www.w3.org/2000/svg" xmlns:xlink="http://www.w3.org/1999/xlink" x="0px" y="0px"
	 viewBox="0 0 414 736" style="enable-background:new 0 0 414 736;" xml:space="preserve">
<style type="text/css">
	.st0{fill:#fbeccb;}
	.st1{fill:#FFFFFF;}
</style>
<g>
	<rect x="1.2" y="0.8" class="st0" width="414.6" height="737"/>
	<g>
		<g>
			<g>
				<path class="st1" d="M194,71.7c3.5-2.5,8.6-3.1,11.3,1.1c2.7,4.2-0.9,9.3-5.5,9.5c-9.5,0.5-10.1-11.9-5.5-17.3
					c2.3-2.7,5.8-4.5,9.2-5.4c4.5-1.1,7.3,1.8,9.2,5.6c3.4,6.6,2.7,14.5-1.9,20.4c-9.9,12.6-28.2,7.1-36-4.6
					c-4-5.9-6.9-14.2-5.2-21.3c0.9-3.6,3.1-6.9,6.5-8.4c4.2-1.8,8.9,0.3,9.9,4.9c1.6-0.4,3.2-0.9,4.8-1.3
					c-2.2-7.1,4.1-11.8,10.2-13.5c2.6-0.7,5.5-1.2,8.1-0.4c1.8,0.5,3.6,1.4,4.1,3.3c0.5,1.7,0.1,3.9-1.9,4.4
					c-3.1,0.9-1.8,5.4,1.3,4.8c7.2-1.5,14.5-2.6,21.9-3.3c7-0.7,16-1.7,21.3,4c6,6.4,0.3,14.4-6.4,17.1c-6.9,2.8-14.9,1.6-22.2,1.6
					c-3.3,0-3.2,4.7,0,5c12.7,1.1,25.3,13.7,18.2,26.9c-3.1,5.8-9.7,8.2-15.7,9.7c-6.8,1.7-13.9,2.9-20.9,3.5
					c-13.2,1.3-28.4,1.2-40.6-4.4c-5.9-2.7-10.9-7.5-10.9-14.4c0.1-8.1,7-13.6,14.8-13.2c3.2,0.1,3.2-4.9,0-5
					c-11.9-0.5-21.8,9.9-19.5,22c2.6,13.3,17.6,17.7,29.2,19.5c15.6,2.4,31.7,0.8,47-2.6c11.6-2.6,22.7-8.4,23.4-21.7
					c0.7-14.4-11.8-24-25.1-25.2c0,1.7,0,3.3,0,5c9.2,0.1,19.6,1.5,27.7-3.8c6-4,10.3-11.2,7.6-18.4c-2.9-7.7-11.4-10.7-18.9-11
					c-10.7-0.3-22,1.9-32.4,4c0.4,1.6,0.9,3.2,1.3,4.8c4.2-1.2,6.3-5.3,5.6-9.5c-0.8-5.2-5.7-8-10.6-8.3
					c-11.1-0.8-25.8,7.7-21.7,20.5c1,3.1,5.5,1.8,4.8-1.3c-1.6-7.5-10.1-11.3-17-8.1c-9,4.2-10.8,14.8-8.9,23.6
					c3.8,17.8,22.4,33.7,40.9,25.3c8.2-3.7,13.7-12,14-21c0.2-7.3-3.9-18.9-12.2-20.4c-16.8-2.9-31.3,24.2-13.1,32
					c7.5,3.2,17.1-2.3,16.6-10.9c-0.6-10.1-12.4-13.2-19.8-8C188.8,69.2,191.3,73.5,194,71.7L194,71.7z"/>
			</g>
		</g>
		<g>
			<g>
				<path class="st1" d="M169.7,119.1c0,4.3,0,8.6,0,12.8c0,3.2,5,3.2,5,0c0-4.3,0-8.6,0-12.8C174.7,115.9,169.7,115.9,169.7,119.1
					L169.7,119.1z"/>
			</g>
		</g>
		<g>
			<g>
				<path class="st1" d="M181.6,122.9c1.4,4.4,2.3,8.9,2.5,13.6c0.1,3.2,5.1,3.2,5,0c-0.2-5.1-1.1-10.1-2.7-14.9
					C185.5,118.5,180.6,119.8,181.6,122.9L181.6,122.9z"/>
			</g>
		</g>
		<g>
			<g>
				<path class="st1" d="M240.6,111.6c0.3,6.1,1.4,12.1,3.1,18c0.9,3.1,5.7,1.8,4.8-1.3c-1.6-5.5-2.6-11-2.9-16.7
					C245.4,108.4,240.4,108.3,240.6,111.6L240.6,111.6z"/>
			</g>
		</g>
		<g>
			<g>
				<path class="st1" d="M248.5,107.1c2.6,1.3,5.4,2.3,8.3,2.9c3.1,0.7,4.5-4.1,1.3-4.8c-2.5-0.5-4.8-1.3-7.1-2.4
					C248.2,101.4,245.6,105.7,248.5,107.1L248.5,107.1z"/>
			</g>
		</g>
		<g>
			<g>
				<path class="st1" d="M228.8,65c3.2,0,3.2-5,0-5C225.6,60,225.6,65,228.8,65L228.8,65z"/>
			</g>
		</g>
	</g>
	<g>
		<g>
			<g>
				<path class="st1" d="M331.1,74.2c2.2-1.9,4.6-1.6,7.1,0.6c-0.4,1.8-0.9,3.5-1.3,5.3c-3.3,3.8-7.5-2.5-7.6-5.1
					c-0.2-4.2,4-8.3,8-8.8c5.5-0.7,7.5,6.1,7.2,10.3c-0.3,4.1-3,7.9-6.5,9.8c-7.7,4.1-16.6-1-20.4-7.9c-1.8-3.2-3-7-2.7-10.7
					c0.2-2.4,0.9-4.7,3-6.2c2.9-2.1,6.7-1.6,7.7,2.2c1.2-0.3,2.4-0.7,3.6-1c-1.3-4.6,2.8-7.7,6.8-8.7c1.6-0.4,3.1-0.6,4.8-0.1
					c0.8,0.2,6.2,3,1.8,4.6c-2.3,0.8-1.4,4.1,1,3.6c7.2-1.4,18.7-4.7,25.7-1.4c7.2,3.4,3.8,10.9-2.2,13c-4.3,1.5-9.4,0.8-13.9,0.7
					c-2.5,0-2.4,3.5,0,3.8c8.4,0.8,17.2,9.6,11.4,18.2c-4.5,6.7-17.8,7.4-24.9,8c-7.8,0.6-16.3,0.4-23.8-2.3
					c-3.8-1.4-7.7-3.9-8.6-8.2c-1.1-5.9,3.8-10.4,9.4-10.3c2.4,0,2.4-3.7,0-3.8c-10-0.2-17,10.5-11.2,19.3c6.5,9.9,23.9,9.9,34.2,9
					c9.9-0.8,26.5-1.8,29.7-13.5c3-10.9-6.2-19.1-16.3-20.2c0,1.3,0,2.5,0,3.8c6.4,0.1,13.7,1,19.2-3.1c3.8-2.8,6.1-7.6,4.2-12.3
					c-5.1-11.8-24.9-6.2-34-4.4c0.3,1.2,0.7,2.4,1,3.6c7.1-2.5,3.5-11.2-2.7-12.2c-7.9-1.2-17.7,5-15.3,13.8c0.6,2.3,4.2,1.3,3.6-1
					C328,58,323,55.3,318.3,57c-5.8,2.1-7.8,8.6-7.1,14.2c1.7,12.8,14.8,24.9,28,18.7c5.6-2.6,9.3-8.6,9.1-14.8
					c-0.1-4.9-3.1-12.3-8.8-12.8c-11.3-1.1-20.5,16.9-7.9,21.7c5.1,2,11.5-2.1,10.9-7.8c-0.7-6.8-8.3-8.5-13.4-5.2
					C327.2,72.3,329.1,75.5,331.1,74.2L331.1,74.2z"/>
			</g>
		</g>
		<g>
			<g>
				<path class="st1" d="M314.7,105.4c0,2.8,0,5.7,0,8.5c0,2.4,3.8,2.4,3.8,0c0-2.8,0-5.7,0-8.5C318.5,103,314.7,103,314.7,105.4
					L314.7,105.4z"/>
			</g>
		</g>
		<g>
			<g>
				<path class="st1" d="M322.6,107.9c0.9,2.9,1.5,5.9,1.6,8.9c0.1,2.4,3.9,2.4,3.8,0c-0.2-3.4-0.7-6.7-1.8-9.9
					C325.5,104.6,321.9,105.6,322.6,107.9L322.6,107.9z"/>
			</g>
		</g>
		<g>
			<g>
				<path class="st1" d="M361.6,100.4c0.2,4.1,0.9,8.1,2.1,12c0.7,2.3,4.3,1.3,3.6-1c-1.1-3.6-1.7-7.2-1.9-11
					C365.2,98,361.4,98,361.6,100.4L361.6,100.4z"/>
			</g>
		</g>
		<g>
			<g>
				<path class="st1" d="M366.9,97.7c1.8,0.9,3.6,1.5,5.5,1.9c2.4,0.5,3.4-3.1,1-3.6c-1.6-0.3-3.2-0.8-4.6-1.6
					c-0.9-0.4-2-0.2-2.6,0.7C365.8,95.9,366,97.2,366.9,97.7L366.9,97.7z"/>
			</g>
		</g>
		<g>
			<g>
				<path class="st1" d="M354,69.8c2.4,0,2.4-3.8,0-3.8C351.6,66.1,351.6,69.8,354,69.8L354,69.8z"/>
			</g>
		</g>
	</g>
	<g>
		<g>
			<g>
				<path class="st1" d="M46.2,51.3c3.8-2.6,10-2.7,11.6,2.7c1.4,4.8-3.7,8.7-8.1,7.6c-9-2.2-6.8-13.8-1.3-18.2
					c3.2-2.5,8.5-4.9,12.3-2.2c2.5,1.8,4.1,5.5,4.8,8.3c1.6,6.5-0.6,13.2-5.7,17.6c-10.5,9.1-25.8,2.5-32.1-8.2
					c-3.2-5.5-5.6-12.9-3.7-19.2c2.1-6.8,13.4-12.3,15.6-2.4c1.2-0.3,2.4-0.7,3.6-1c-2-6.7,3.6-11.2,9.4-12.8c2.5-0.7,5.5-1.2,8-0.4
					c2.7,0.8,7,6.3,1.9,7.9c-2.3,0.7-1.4,4.1,1,3.6c6.9-1.4,13.9-2.5,20.9-3.1c6.2-0.6,13.6-1.2,18.6,3.4c5.9,5.5,1.8,13.2-4.3,16.3
					c-6.5,3.3-14.6,2-21.6,2c-2.4,0-2.4,3.5,0,3.8c12,1.1,23.9,13.1,16.9,25.4c-3.2,5.6-9.7,7.6-15.6,9c-6.4,1.5-12.9,2.5-19.5,3.1
					c-11.6,1-24.6,0.7-35.4-4c-5.8-2.5-10.6-6.9-10.7-13.7c-0.1-7.7,6.7-12.9,13.9-12.6c2.4,0.1,2.4-3.7,0-3.8
					C12.9,59.8,3.8,75.7,12.7,87.1c4.4,5.5,11.5,8,18.1,9.5c9.2,2,18.8,2.3,28.2,1.6c13.3-1.1,35.9-2.5,40.1-18.4
					c3.8-14.3-8.6-25.5-21.9-26.7c0,1.3,0,2.5,0,3.8c8.7,0.1,18.5,1.4,26-4c5-3.6,8.2-9.9,5.8-15.9c-2.5-6.4-9.6-9.1-16-9.5
					c-10-0.6-20.6,1.6-30.4,3.6c0.3,1.2,0.7,2.4,1,3.6c3.5-1.1,5.2-4.2,4.8-7.8C68,22.1,64,19.6,59.8,19
					c-10.2-1.3-23.7,6.5-20.1,18.2c0.7,2.3,4.1,1.4,3.6-1c-1.5-6.6-8.8-9.9-15-7.2C20.9,32.4,18.8,41,20,48.3
					c2.6,16.6,19.2,32.2,36.6,25c7.2-3,12.4-10,13.1-17.8c0.6-6.5-2.4-16.3-9.1-19c-7.2-2.9-16.7,3.9-19.6,10.2
					c-2.9,6.5-0.8,14.7,6,17.8c6.4,2.9,14.8-1.6,14.8-9C61.7,46.3,51,43.4,44.3,48C42.3,49.4,44.2,52.6,46.2,51.3L46.2,51.3z"/>
			</g>
		</g>
		<g>
			<g>
				<path class="st1" d="M24.6,95c0,3.9,0,7.8,0,11.7c0,2.4,3.8,2.4,3.8,0c0-3.9,0-7.8,0-11.7C28.4,92.6,24.6,92.6,24.6,95L24.6,95z
					"/>
			</g>
		</g>
		<g>
			<g>
				<path class="st1" d="M35.5,98.3c1.3,4.1,2.1,8.2,2.3,12.5c0.1,2.4,3.9,2.4,3.8,0c-0.2-4.6-1-9.1-2.4-13.5
					C38.4,95,34.8,96,35.5,98.3L35.5,98.3z"/>
			</g>
		</g>
		<g>
			<g>
				<path class="st1" d="M89.5,88.1c0.3,5.6,1.2,11,2.8,16.4c0.7,2.3,4.3,1.3,3.6-1c-1.5-5-2.4-10.1-2.7-15.4
					C93.1,85.7,89.3,85.7,89.5,88.1L89.5,88.1z"/>
			</g>
		</g>
		<g>
			<g>
				<path class="st1" d="M96.5,83.7c2.4,1.2,4.9,2.1,7.5,2.6c2.4,0.5,3.4-3.1,1-3.6c-2.3-0.5-4.5-1.2-6.6-2.2
					C96.3,79.4,94.4,82.6,96.5,83.7L96.5,83.7z"/>
			</g>
		</g>
		<g>
			<g>
				<path class="st1" d="M78.3,45.1c2.4,0,2.4-3.8,0-3.8C75.9,41.3,75.8,45.1,78.3,45.1L78.3,45.1z"/>
			</g>
		</g>
	</g>
	<g>
		<g>
			<g>
				<path class="st1" d="M195,618.9c3.9-2.8,9.9-3.3,12.4,1.8c2,4-0.5,8.2-4.5,9.4c-4.3,1.3-8.5-1.7-10.1-5.6
					c-1.8-4.2-0.4-9.2,2.5-12.6c2.5-2.9,6.1-4.8,9.8-5.7c6-1.5,9.5,3.9,11.1,8.9c2.4,7.2,0.5,15.2-4.9,20.5
					c-11.9,11.8-30.3,4.1-37.7-8.6c-3.7-6.4-6.5-15.3-3.8-22.6c2.6-7.2,14.9-12.3,17.1-1.9c1.6-0.4,3.2-0.9,4.8-1.3
					c-2.6-8.2,5.5-13.3,12.5-14.7c2.8-0.6,6.2-0.8,8.8,0.5c2.6,1.3,4.7,6.7,0.6,7.8c-3.1,0.9-1.8,5.4,1.3,4.8
					c8-1.6,16.1-2.8,24.2-3.6c7.2-0.7,16-1.4,21.5,4.3c6.1,6.3,0.9,14.7-5.8,17.9c-7.4,3.5-16.5,2.1-24.4,2c-3.3,0-3.2,4.7,0,5
					c13.7,1.2,27.4,15.2,19,29.1c-3.6,6-10.7,8.3-17.1,9.8c-7.5,1.8-15.1,3-22.8,3.7c-13.6,1.2-29.7,1.1-42.2-5.2
					c-6.2-3.1-11.2-8.4-10.7-15.7c0.5-8.3,7.7-13.6,15.7-13.3c3.2,0.1,3.2-4.9,0-5c-12.7-0.5-23,10.6-20.3,23.4
					c2.8,13.2,17.5,17.8,29.1,19.8c16.4,2.8,33.1,1.2,49.3-2.2c12.6-2.7,25.4-8.4,26.2-23c0.8-15-12.4-25.2-26.3-26.4
					c0,1.7,0,3.3,0,5c9.8,0.1,20.8,1.6,29.4-4.2c6.1-4.2,10.5-11.8,7.6-19.2c-3.2-7.9-11.8-11-19.7-11.3c-11.3-0.3-23.1,2-34.1,4.2
					c0.4,1.6,0.9,3.2,1.3,4.8c4.5-1.3,6.6-5.7,5.7-10.2c-1-5-5.5-7.7-10.3-8.3c-11.8-1.4-27.8,7.7-23.5,21.4c1,3.1,5.5,1.8,4.8-1.3
					c-1.6-7.8-10.4-11.7-17.5-8.6c-9.1,4-11.5,14.5-9.9,23.4c3.3,18.6,21.5,35.8,41.3,28.9c8.8-3.1,15.3-11.3,16.4-20.5
					c1-7.9-2.6-20.4-11.1-23.2c-8.1-2.7-18.6,4.5-22.1,11.5c-3.9,7.9-1.4,18,7,21.7c7.7,3.4,17.7-2.4,17.3-11.2
					c-0.5-10.6-12.9-14-20.6-8.5C189.9,616.4,192.4,620.8,195,618.9L195,618.9z"/>
			</g>
		</g>
		<g>
			<g>
				<path class="st1" d="M169.6,669c0,4.5,0,9,0,13.5c0,3.2,5,3.2,5,0c0-4.5,0-9,0-13.5C174.6,665.8,169.6,665.8,169.6,669
					L169.6,669z"/>
			</g>
		</g>
		<g>
			<g>
				<path class="st1" d="M182.2,672.9c1.5,4.7,2.4,9.4,2.6,14.4c0.1,3.2,5.1,3.2,5,0c-0.2-5.4-1.2-10.6-2.8-15.7
					C186,668.5,181.2,669.8,182.2,672.9L182.2,672.9z"/>
			</g>
		</g>
		<g>
			<g>
				<path class="st1" d="M244.3,661c0.4,6.5,1.4,12.8,3.3,19c0.9,3.1,5.7,1.8,4.8-1.3c-1.7-5.8-2.7-11.6-3.1-17.6
					C249.1,657.8,244.1,657.8,244.3,661L244.3,661z"/>
			</g>
		</g>
		<g>
			<g>
				<path class="st1" d="M252.6,656.3c2.8,1.4,5.7,2.4,8.7,3c3.1,0.7,4.5-4.1,1.3-4.8c-2.6-0.6-5.1-1.4-7.5-2.5
					C252.3,650.5,249.8,654.9,252.6,656.3L252.6,656.3z"/>
			</g>
		</g>
		<g>
			<g>
				<path class="st1" d="M231.8,611.8c3.2,0,3.2-5,0-5C228.5,606.8,228.5,611.8,231.8,611.8L231.8,611.8z"/>
			</g>
		</g>
	</g>
	<g>
		<g>
			<g>
				<path class="st1" d="M353.9,664c2.2-1.9,4.6-1.6,7.1,0.6c-0.4,1.8-0.9,3.5-1.3,5.3c-3.3,3.8-7.5-2.5-7.6-5.1
					c-0.2-4.2,4-8.3,8-8.8c5.5-0.7,7.5,6.1,7.2,10.3c-0.3,4.1-3,7.9-6.5,9.8c-7.7,4.1-16.6-1-20.4-7.9c-1.8-3.2-3-7-2.7-10.7
					c0.2-2.4,0.9-4.7,3-6.2c2.9-2.1,6.7-1.6,7.7,2.2c1.2-0.3,2.4-0.7,3.6-1c-1.3-4.6,2.8-7.7,6.8-8.7c1.6-0.4,3.1-0.6,4.8-0.1
					c0.8,0.2,6.2,3,1.8,4.6c-2.3,0.8-1.4,4.1,1,3.6c7.2-1.4,18.7-4.7,25.7-1.4c7.2,3.4,3.8,10.9-2.2,13c-4.3,1.5-9.4,0.8-13.9,0.7
					c-2.5,0-2.4,3.5,0,3.8c8.4,0.8,17.2,9.6,11.4,18.2c-4.5,6.7-17.8,7.4-24.9,8c-7.8,0.6-16.3,0.4-23.8-2.3
					c-3.8-1.4-7.7-3.9-8.6-8.2c-1.1-5.9,3.8-10.4,9.4-10.3c2.4,0,2.4-3.7,0-3.8c-10-0.2-17,10.5-11.2,19.3c6.5,9.9,23.9,9.9,34.2,9
					c9.9-0.8,26.5-1.8,29.7-13.5c3-10.9-6.2-19.1-16.3-20.2c0,1.3,0,2.5,0,3.8c6.4,0.1,13.7,1,19.2-3.1c3.8-2.8,6.1-7.6,4.2-12.3
					c-5.1-11.8-24.9-6.2-34-4.4c0.3,1.2,0.7,2.4,1,3.6c7.1-2.5,3.5-11.2-2.7-12.2c-7.9-1.2-17.7,5-15.3,13.8c0.6,2.3,4.2,1.3,3.6-1
					c-1.2-4.7-6.2-7.5-10.9-5.8c-5.8,2.1-7.8,8.6-7.1,14.2c1.7,12.8,14.8,24.9,28,18.7c5.6-2.6,9.3-8.6,9.1-14.8
					c-0.1-4.9-3.1-12.3-8.8-12.8c-11.3-1.1-20.5,16.9-7.9,21.7c5.1,2,11.5-2.1,10.9-7.8c-0.7-6.8-8.3-8.5-13.4-5.2
					C350,662,351.9,665.3,353.9,664L353.9,664z"/>
			</g>
		</g>
		<g>
			<g>
				<path class="st1" d="M337.5,695.1c0,2.8,0,5.7,0,8.5c0,2.4,3.8,2.4,3.8,0c0-2.8,0-5.7,0-8.5
					C341.3,692.7,337.5,692.7,337.5,695.1L337.5,695.1z"/>
			</g>
		</g>
		<g>
			<g>
				<path class="st1" d="M345.4,697.7c0.9,2.9,1.5,5.9,1.6,8.9c0.1,2.4,3.9,2.4,3.8,0c-0.2-3.4-0.7-6.7-1.8-9.9
					C348.3,694.4,344.7,695.4,345.4,697.7L345.4,697.7z"/>
			</g>
		</g>
		<g>
			<g>
				<path class="st1" d="M384.4,690.1c0.2,4.1,0.9,8.1,2.1,12c0.7,2.3,4.3,1.3,3.6-1c-1.1-3.6-1.7-7.2-1.9-11
					C388,687.7,384.3,687.7,384.4,690.1L384.4,690.1z"/>
			</g>
		</g>
		<g>
			<g>
				<path class="st1" d="M389.8,687.4c1.8,0.9,3.6,1.5,5.5,1.9c2.4,0.5,3.4-3.1,1-3.6c-1.6-0.3-3.2-0.8-4.6-1.6
					c-0.9-0.4-2-0.2-2.6,0.7C388.6,685.7,388.9,687,389.8,687.4L389.8,687.4z"/>
			</g>
		</g>
		<g>
			<g>
				<path class="st1" d="M376.8,659.6c2.4,0,2.4-3.8,0-3.8C374.4,655.9,374.4,659.6,376.8,659.6L376.8,659.6z"/>
			</g>
		</g>
	</g>
	<g>
		<g>
			<g>
				<path class="st1" d="M28.4,669.2c2.2-1.9,4.6-1.6,7.1,0.6c-0.4,1.8-0.9,3.5-1.3,5.3c-3.3,3.8-7.5-2.5-7.6-5.1
					c-0.2-4.2,4-8.3,8-8.8c5.5-0.7,7.5,6.1,7.2,10.3c-0.3,4.1-3,7.9-6.5,9.8c-7.7,4.1-16.6-1-20.4-7.9c-1.8-3.2-3-7-2.7-10.7
					c0.2-2.4,0.9-4.7,3-6.2c2.9-2.1,6.7-1.6,7.7,2.2c1.2-0.3,2.4-0.7,3.6-1c-1.3-4.6,2.8-7.7,6.8-8.7c1.6-0.4,3.1-0.6,4.8-0.1
					c0.8,0.2,6.2,3,1.8,4.6c-2.3,0.8-1.4,4.1,1,3.6c7.2-1.4,18.7-4.7,25.7-1.4c7.2,3.4,3.8,10.9-2.2,13c-4.3,1.5-9.4,0.8-13.9,0.7
					c-2.5,0-2.4,3.5,0,3.8c8.4,0.8,17.2,9.6,11.4,18.2c-4.5,6.7-17.8,7.4-24.9,8c-7.8,0.6-16.3,0.4-23.8-2.3
					c-3.8-1.4-7.7-3.9-8.6-8.2c-1.1-5.9,3.8-10.4,9.4-10.3c2.4,0,2.4-3.7,0-3.8c-10-0.2-17,10.5-11.2,19.3c6.5,9.9,23.9,9.9,34.2,9
					c9.9-0.8,26.5-1.8,29.7-13.5c3-10.9-6.2-19.1-16.3-20.2c0,1.3,0,2.5,0,3.8c6.4,0.1,13.7,1,19.2-3.1c3.8-2.8,6.1-7.6,4.2-12.3
					c-5.1-11.8-24.9-6.2-34-4.4c0.3,1.2,0.7,2.4,1,3.6c7.1-2.5,3.5-11.2-2.7-12.2c-7.9-1.2-17.7,5-15.3,13.8c0.6,2.3,4.2,1.3,3.6-1
					c-1.2-4.7-6.2-7.5-10.9-5.8c-5.8,2.1-7.8,8.6-7.1,14.2c1.7,12.8,14.8,24.9,28,18.7c5.6-2.6,9.3-8.6,9.1-14.8
					c-0.1-4.9-3.1-12.3-8.8-12.8c-11.3-1.1-20.5,16.9-7.9,21.7c5.1,2,11.5-2.1,10.9-7.8c-0.7-6.8-8.3-8.5-13.4-5.2
					C24.4,667.3,26.3,670.5,28.4,669.2L28.4,669.2z"/>
			</g>
		</g>
		<g>
			<g>
				<path class="st1" d="M12,700.4c0,2.8,0,5.7,0,8.5c0,2.4,3.8,2.4,3.8,0c0-2.8,0-5.7,0-8.5C15.7,698,12,698,12,700.4L12,700.4z"/>
			</g>
		</g>
		<g>
			<g>
				<path class="st1" d="M19.9,702.9c0.9,2.9,1.5,5.9,1.6,8.9c0.1,2.4,3.9,2.4,3.8,0c-0.2-3.4-0.7-6.7-1.8-9.9
					C22.7,699.6,19.1,700.6,19.9,702.9L19.9,702.9z"/>
			</g>
		</g>
		<g>
			<g>
				<path class="st1" d="M58.8,695.4c0.2,4.1,0.9,8.1,2.1,12c0.7,2.3,4.3,1.3,3.6-1c-1.1-3.6-1.7-7.2-1.9-11
					C62.4,693,58.7,693,58.8,695.4L58.8,695.4z"/>
			</g>
		</g>
		<g>
			<g>
				<path class="st1" d="M64.2,692.7c1.8,0.9,3.6,1.5,5.5,1.9c2.4,0.5,3.4-3.1,1-3.6c-1.6-0.3-3.2-0.8-4.6-1.6
					c-0.9-0.4-2-0.2-2.6,0.7C63,690.9,63.3,692.2,64.2,692.7L64.2,692.7z"/>
			</g>
		</g>
		<g>
			<g>
				<path class="st1" d="M51.3,664.9c2.4,0,2.4-3.8,0-3.8C48.8,661.1,48.8,664.9,51.3,664.9L51.3,664.9z"/>
			</g>
		</g>
	</g>
	<g>
		<g>
			<g>
				<path class="st1" d="M39.8,364.7c3.5-2.5,8.6-3.1,11.3,1.1c2.7,4.2-0.9,9.3-5.5,9.5c-9.5,0.5-10.1-11.9-5.5-17.3
					c2.3-2.7,5.8-4.5,9.2-5.4c4.5-1.1,7.3,1.8,9.2,5.6c3.4,6.6,2.7,14.5-1.9,20.4c-9.9,12.6-28.2,7.1-36-4.6
					c-4-5.9-6.9-14.2-5.2-21.3c0.9-3.6,3.1-6.9,6.5-8.4c4.2-1.8,8.9,0.3,9.9,4.9c1.6-0.4,3.2-0.9,4.8-1.3
					c-2.2-7.1,4.1-11.8,10.2-13.5c2.6-0.7,5.5-1.2,8.1-0.4c1.8,0.5,3.6,1.4,4.1,3.3c0.5,1.7,0.1,3.9-1.9,4.4
					c-3.1,0.9-1.8,5.4,1.3,4.8c7.2-1.5,14.5-2.6,21.9-3.3c7-0.7,16-1.7,21.3,4c6,6.4,0.3,14.4-6.4,17.1c-6.9,2.8-14.9,1.6-22.2,1.6
					c-3.3,0-3.2,4.7,0,5c12.7,1.1,25.3,13.7,18.2,26.9c-3.1,5.8-9.7,8.2-15.7,9.7c-6.8,1.7-13.9,2.9-20.9,3.5
					c-13.2,1.3-28.4,1.2-40.6-4.4c-5.9-2.7-10.9-7.5-10.9-14.4c0.1-8.1,7-13.6,14.8-13.2c3.2,0.1,3.2-4.9,0-5
					c-11.9-0.5-21.8,9.9-19.5,22c2.6,13.3,17.6,17.7,29.2,19.5c15.6,2.4,31.7,0.8,47-2.6c11.6-2.6,22.7-8.4,23.4-21.7
					c0.7-14.4-11.8-24-25.1-25.2c0,1.7,0,3.3,0,5c9.2,0.1,19.6,1.5,27.7-3.8c6-4,10.3-11.2,7.6-18.4c-2.9-7.7-11.4-10.7-18.9-11
					c-10.7-0.3-22,1.9-32.4,4c0.4,1.6,0.9,3.2,1.3,4.8c4.2-1.2,6.3-5.3,5.6-9.5c-0.8-5.2-5.7-8-10.6-8.3
					c-11.1-0.8-25.8,7.7-21.7,20.5c1,3.1,5.5,1.8,4.8-1.3c-1.6-7.5-10.1-11.3-17-8.1c-9,4.2-10.8,14.8-8.9,23.6
					c3.8,17.8,22.4,33.7,40.9,25.3c8.2-3.7,13.7-12,14-21c0.2-7.3-3.9-18.9-12.2-20.4c-16.8-2.9-31.3,24.2-13.1,32
					c7.5,3.2,17.1-2.3,16.6-10.9c-0.6-10.1-12.4-13.2-19.8-8C34.6,362.2,37.1,366.6,39.8,364.7L39.8,364.7z"/>
			</g>
		</g>
		<g>
			<g>
				<path class="st1" d="M15.5,412.1c0,4.3,0,8.6,0,12.8c0,3.2,5,3.2,5,0c0-4.3,0-8.6,0-12.8C20.5,408.9,15.5,408.9,15.5,412.1
					L15.5,412.1z"/>
			</g>
		</g>
		<g>
			<g>
				<path class="st1" d="M27.4,415.9c1.4,4.4,2.3,8.9,2.5,13.6c0.1,3.2,5.1,3.2,5,0c-0.2-5.1-1.1-10.1-2.7-14.9
					C31.3,411.5,26.4,412.8,27.4,415.9L27.4,415.9z"/>
			</g>
		</g>
		<g>
			<g>
				<path class="st1" d="M86.4,404.6c0.3,6.1,1.4,12.1,3.1,18c0.9,3.1,5.7,1.8,4.8-1.3c-1.6-5.5-2.6-11-2.9-16.7
					C91.2,401.4,86.2,401.4,86.4,404.6L86.4,404.6z"/>
			</g>
		</g>
		<g>
			<g>
				<path class="st1" d="M94.3,400.2c2.6,1.3,5.4,2.3,8.3,2.9c3.1,0.7,4.5-4.1,1.3-4.8c-2.5-0.5-4.8-1.3-7.1-2.4
					C94,394.4,91.4,398.8,94.3,400.2L94.3,400.2z"/>
			</g>
		</g>
		<g>
			<g>
				<path class="st1" d="M74.6,358c3.2,0,3.2-5,0-5C71.4,353,71.4,358,74.6,358L74.6,358z"/>
			</g>
		</g>
	</g>
	<g>
		<g>
			<g>
				<path class="st1" d="M200.1,368.6c3.4-2.3,11.3-0.8,8.2,5.1c-1.7,3.2-6.1,2.8-8.2,0.7c-5-4.9,0.1-12.4,5.4-14.1
					c6.9-2.1,10,5.4,9.6,11c-0.3,4.3-2.9,8.3-6.6,10.5c-8.2,4.8-18.1,0-22.7-7.5c-2.4-4-4.3-9.5-3.3-14.1c1.1-5.4,9.8-11,11.9-2.9
					c1.2-0.3,2.4-0.7,3.6-1c-1.5-5.3,3.2-8.6,7.7-9.7c1.6-0.4,3.5-0.7,5.1-0.3c2.2,0.5,5.6,4.3,2,5.6c-2.3,0.8-1.4,4.1,1,3.6
					c5.1-1,10.2-1.8,15.4-2.3c4.8-0.5,10.4-1.2,14.5,1.8c6.1,4.6,1.7,11.5-4.1,13.6c-4.8,1.7-10.3,0.9-15.2,0.8
					c-2.5,0-2.4,3.5,0,3.8c9.3,0.9,19,10.8,12.6,20.2c-4.9,7.2-19,8-26.7,8.6c-8.9,0.8-18.5,0.6-26.9-2.6c-4.1-1.6-8.2-4.3-9.1-9
					c-1.3-6.7,4.1-11.6,10.5-11.5c2.4,0.1,2.4-3.7,0-3.8c-11.4-0.3-18.8,12.5-11.4,21.8c7.9,9.9,25.7,9.7,37,8.8
					c10.7-0.9,28.5-2.1,31.9-14.8c3.1-11.7-6.9-20.5-17.7-21.6c0,1.3,0,2.5,0,3.8c6.9,0.1,14.6,1.1,20.6-3.1c4.2-3,6.9-8.2,4.9-13.3
					c-5.2-13-27.2-6.8-37.1-4.8c0.3,1.2,0.7,2.4,1,3.6c2.9-1,4.5-3.6,4.1-6.7c-0.5-3.8-3.8-5.9-7.4-6.3c-8.4-0.9-18.7,5.4-16.1,14.9
					c0.6,2.3,4.2,1.3,3.6-1c-1.4-5.5-7.3-8.2-12.4-5.9c-5.7,2.6-7.6,9.2-6.8,15c1.8,13.8,16,27.1,30.4,20.3
					c5.8-2.8,9.7-8.8,9.8-15.2c0.1-5.4-3.1-14.1-9.4-14.6c-12.1-1.1-22.2,18.3-8.5,23.4c5.6,2.1,12.5-2.4,11.6-8.6
					c-1-7.1-9-8.8-14.3-5.3C196.2,366.7,198.1,370,200.1,368.6L200.1,368.6z"/>
			</g>
		</g>
		<g>
			<g>
				<path class="st1" d="M182.5,402.8c0,3.1,0,6.2,0,9.3c0,2.4,3.8,2.4,3.8,0c0-3.1,0-6.2,0-9.3
					C186.2,400.4,182.5,400.4,182.5,402.8L182.5,402.8z"/>
			</g>
		</g>
		<g>
			<g>
				<path class="st1" d="M191.1,405.5c1,3.2,1.6,6.4,1.8,9.8c0.1,2.4,3.9,2.4,3.8,0c-0.2-3.7-0.8-7.3-1.9-10.8
					C194,402.3,190.3,403.2,191.1,405.5L191.1,405.5z"/>
			</g>
		</g>
		<g>
			<g>
				<path class="st1" d="M233.7,397.4c0.2,4.4,1,8.8,2.2,13c0.7,2.3,4.3,1.3,3.6-1c-1.2-3.9-1.9-7.9-2.1-12
					C237.3,395,233.5,394.9,233.7,397.4L233.7,397.4z"/>
			</g>
		</g>
		<g>
			<g>
				<path class="st1" d="M239.5,394.2c1.9,0.9,3.9,1.7,6,2.1c2.4,0.5,3.4-3.1,1-3.6c-1.8-0.4-3.5-0.9-5.1-1.7
					C239.2,389.9,237.3,393.2,239.5,394.2L239.5,394.2z"/>
			</g>
		</g>
		<g>
			<g>
				<path class="st1" d="M225.2,363.8c2.4,0,2.4-3.8,0-3.8C222.8,360.1,222.8,363.8,225.2,363.8L225.2,363.8z"/>
			</g>
		</g>
	</g>
	<g>
		<g>
			<g>
				<path class="st1" d="M290.7,206.8c3.6-2.5,9.6-2.6,11.1,2.6c1.2,4.1-2.6,7.4-6.4,7.3c-9.1-0.3-8.5-11.9-3.6-16.7
					c2.7-2.6,8.3-5.3,12.1-3.7c2.8,1.2,4.7,6.1,5.4,8.8c1.5,5.9-0.5,12.3-5,16.4c-9.9,9.2-24.7,3.4-31.1-6.8
					c-3.2-5.1-5.6-12.2-4.2-18.2c0.8-3.5,3.2-7.2,6.8-8.2c3.8-1.1,7.6,1.2,8.5,4.9c1.2-0.3,2.4-0.7,3.6-1c-2-6.4,3.5-10.8,9.1-12.3
					c2.4-0.7,5.3-1.1,7.7-0.4c2.6,0.8,6.7,6,1.9,7.5c-2.3,0.7-1.4,4.1,1,3.6c6.4-1.3,12.8-2.3,19.3-2.9c6.4-0.6,14.5-1.5,19.3,3.7
					c5.4,5.8,0.3,13.1-5.7,15.6c-6.1,2.6-13.3,1.5-19.8,1.5c-2.5,0-2.4,3.5,0,3.8c11.6,1.1,23.1,12.6,16.3,24.6
					c-5.5,9.7-23,10.7-32.7,11.6c-11.2,1.1-23.4,0.9-34.1-3.2c-5.8-2.2-11.4-6.3-11.7-13c-0.4-7.7,6.1-13.1,13.4-12.9
					c2.4,0.1,2.4-3.7,0-3.8c-13.7-0.4-22.5,15.1-13.6,26.1c4.7,5.8,12.4,8.1,19.4,9.4c8.7,1.7,17.7,1.9,26.6,1
					c12.7-1.2,33.7-2.7,37.7-17.8c3.7-13.9-8.4-24.7-21.3-25.9c0,1.3,0,2.5,0,3.8c8.2,0.1,17.4,1.3,24.6-3.5c5-3.4,8.6-9.5,6.4-15.6
					c-2.3-6.4-9.3-9.2-15.6-9.5c-9.7-0.6-20.1,1.6-29.5,3.5c0.3,1.2,0.7,2.4,1,3.6c3.4-1,5.1-4.1,4.7-7.7c-0.5-4.4-4.3-6.9-8.5-7.4
					c-9.9-1.2-23,6.4-19.5,17.7c0.7,2.3,4.1,1.4,3.6-1c-1.5-6.5-8.6-9.7-14.6-7c-7.4,3.4-9.2,12.1-7.9,19.4
					c2.8,15.9,19.1,30.8,35.8,23.4c6.8-3,11.8-9.8,12.3-17.3c0.5-6.5-2.7-17.1-10.1-18.7c-14.7-3.1-27.6,20.7-11.7,27.6
					c6.4,2.8,14.8-2.1,14.2-9.5c-0.8-8.6-10.7-11-17-6.7C286.9,204.9,288.7,208.2,290.7,206.8L290.7,206.8z"/>
			</g>
		</g>
		<g>
			<g>
				<path class="st1" d="M269.7,249.1c0,3.8,0,7.6,0,11.4c0,2.4,3.8,2.4,3.8,0c0-3.8,0-7.6,0-11.4
					C273.5,246.7,269.7,246.7,269.7,249.1L269.7,249.1z"/>
			</g>
		</g>
		<g>
			<g>
				<path class="st1" d="M280.3,252.3c1.3,4,2,8,2.2,12.1c0.1,2.4,3.9,2.4,3.8,0c-0.2-4.5-1-8.9-2.4-13.1
					C283.2,249,279.5,250,280.3,252.3L280.3,252.3z"/>
			</g>
		</g>
		<g>
			<g>
				<path class="st1" d="M332.5,242.4c0.3,5.4,1.2,10.7,2.7,15.9c0.7,2.3,4.3,1.3,3.6-1c-1.4-4.9-2.3-9.8-2.6-14.9
					C336.1,240,332.4,240,332.5,242.4L332.5,242.4z"/>
			</g>
		</g>
		<g>
			<g>
				<path class="st1" d="M339.4,238.2c2.3,1.1,4.7,2,7.3,2.5c2.4,0.5,3.4-3.1,1-3.6c-2.2-0.5-4.3-1.2-6.4-2.2
					C339.1,233.9,337.2,237.1,339.4,238.2L339.4,238.2z"/>
			</g>
		</g>
		<g>
			<g>
				<path class="st1" d="M321.7,200.8c2.4,0,2.4-3.8,0-3.8C319.3,197.1,319.3,200.8,321.7,200.8L321.7,200.8z"/>
			</g>
		</g>
	</g>
	<g>
		<g>
			<g>
				<path class="st1" d="M84.6,205.7c3.5-2.4,11.1-1.3,9.3,4.7c-1.3,4.3-6.7,4.3-9.4,1.7c-5.4-5.4,0.1-13.2,5.8-15.1
					c5.9-2,9.2,2.7,10.1,8c1,5.6-1.5,11.5-6.3,14.7c-9,6-20.3,0.3-25.2-8.1c-2.5-4.2-4.3-9.9-3.2-14.8c1.3-5.8,10.8-11.3,12.8-2.9
					c1.2-0.3,2.4-0.7,3.6-1c-1.5-5.2,2.8-9,7.5-10.3c2-0.6,4.3-1,6.3-0.5c2,0.5,6.6,4.7,2.1,6.1c-2.3,0.7-1.4,4.1,1,3.6
					c5.4-1.1,10.9-2,16.4-2.5c5.4-0.5,12.1-1.4,16.5,2.7c5.6,5.2,0.3,12-5.3,13.9c-5.1,1.8-10.9,0.9-16.2,0.9c-2.5,0-2.4,3.5,0,3.8
					c10,1,20.4,11.7,13.4,21.8c-5.3,7.5-19.5,8.3-27.7,9.1c-9.6,0.9-20.2,0.7-29.3-2.7c-5.1-1.9-10-5.7-10-11.6
					c0-6.4,5.3-10.5,11.4-10.3c2.4,0.1,2.4-3.7,0-3.8c-12-0.3-19.8,13.2-12,23c8.5,10.6,27.8,10.3,39.9,9.2
					c10.9-1,29.3-2.2,32.9-15.1c3.5-12.4-7-22.1-18.6-23.2c0,1.3,0,2.5,0,3.8c7.6,0.1,16.3,1.2,22.6-3.9c3.8-3.1,6.3-8.2,4.4-13.1
					c-2-5.2-7.4-7.7-12.6-8.2c-8.6-0.9-18.3,1.3-26.7,2.9c0.3,1.2,0.7,2.4,1,3.6c3.1-1,4.7-3.8,4.3-7.1c-0.6-4-4.1-6.1-7.8-6.5
					c-8.8-1-19.9,5.7-17,15.6c0.7,2.3,4.2,1.4,3.6-1c-1.4-5.8-7.7-8.6-13-6.2c-6.1,2.8-8,9.9-7.1,16c2,14.2,16.4,28,31.3,21.6
					c6.7-2.8,11.2-9.6,11.1-16.9c0-5.4-3.1-13.5-9-14.8c-12.8-2.8-24.4,18-10.6,24.3c5.8,2.7,13.6-1.7,12.9-8.5
					c-0.8-7.6-9.5-9.5-15.1-5.8C80.7,203.8,82.5,207.1,84.6,205.7L84.6,205.7z"/>
			</g>
		</g>
		<g>
			<g>
				<path class="st1" d="M66,242.1c0,3.3,0,6.6,0,9.8c0,2.4,3.8,2.4,3.8,0c0-3.3,0-6.6,0-9.8C69.7,239.7,66,239.7,66,242.1L66,242.1
					z"/>
			</g>
		</g>
		<g>
			<g>
				<path class="st1" d="M75.1,245c1.1,3.4,1.8,6.9,1.9,10.4c0.1,2.4,3.9,2.4,3.8,0c-0.2-3.9-0.8-7.7-2.1-11.4
					C78,241.7,74.4,242.7,75.1,245L75.1,245z"/>
			</g>
		</g>
		<g>
			<g>
				<path class="st1" d="M120.4,236.3c0.3,4.7,1,9.3,2.4,13.8c0.7,2.3,4.3,1.3,3.6-1c-1.2-4.2-2-8.5-2.2-12.8
					C124,233.9,120.2,233.9,120.4,236.3L120.4,236.3z"/>
			</g>
		</g>
		<g>
			<g>
				<path class="st1" d="M126.5,232.9c2,1,4.1,1.7,6.3,2.2c2.4,0.5,3.4-3.1,1-3.6c-1.9-0.4-3.7-1-5.4-1.8
					C126.2,228.6,124.3,231.9,126.5,232.9L126.5,232.9z"/>
			</g>
		</g>
		<g>
			<g>
				<path class="st1" d="M111.3,200.6c2.4,0,2.4-3.8,0-3.8C108.9,196.8,108.9,200.6,111.3,200.6L111.3,200.6z"/>
			</g>
		</g>
	</g>
	<g>
		<g>
			<g>
				<path class="st1" d="M310.9,505.6c3.4-2.3,11.3-0.8,8.2,5.1c-1.7,3.2-6.1,2.8-8.2,0.7c-5-4.9,0.1-12.4,5.4-14.1
					c6.9-2.1,10,5.4,9.6,11c-0.3,4.3-2.9,8.3-6.6,10.5c-8.2,4.8-18.1,0-22.7-7.5c-2.4-4-4.3-9.5-3.3-14.1c1.1-5.4,9.8-11,11.9-2.9
					c1.2-0.3,2.4-0.7,3.6-1c-1.5-5.3,3.2-8.6,7.7-9.7c1.6-0.4,3.5-0.7,5.1-0.3c2.2,0.5,5.6,4.3,2,5.6c-2.3,0.8-1.4,4.1,1,3.6
					c5.1-1,10.2-1.8,15.4-2.3c4.8-0.5,10.4-1.2,14.5,1.8c6.1,4.6,1.7,11.5-4.1,13.6c-4.8,1.7-10.3,0.9-15.2,0.8
					c-2.5,0-2.4,3.5,0,3.8c9.3,0.9,19,10.8,12.6,20.2c-4.9,7.2-19,8-26.7,8.6c-8.9,0.8-18.5,0.6-26.9-2.6c-4.1-1.6-8.2-4.3-9.1-9
					c-1.3-6.7,4.1-11.6,10.5-11.5c2.4,0.1,2.4-3.7,0-3.8c-11.4-0.3-18.8,12.5-11.4,21.8c7.9,9.9,25.7,9.7,37,8.8
					c10.7-0.9,28.5-2.1,31.9-14.8c3.1-11.7-6.9-20.5-17.7-21.6c0,1.3,0,2.5,0,3.8c6.9,0.1,14.6,1.1,20.6-3.1c4.2-3,6.9-8.2,4.9-13.3
					c-5.2-13-27.2-6.8-37.1-4.8c0.3,1.2,0.7,2.4,1,3.6c2.9-1,4.5-3.6,4.1-6.7c-0.5-3.8-3.8-5.9-7.4-6.3c-8.4-0.9-18.7,5.4-16.1,14.9
					c0.6,2.3,4.2,1.3,3.6-1c-1.4-5.5-7.3-8.2-12.4-5.9c-5.7,2.6-7.6,9.2-6.8,15c1.8,13.8,16,27.1,30.4,20.3
					c5.8-2.8,9.7-8.8,9.8-15.2c0.1-5.4-3.1-14.1-9.4-14.6c-12.1-1.1-22.2,18.3-8.5,23.4c5.6,2.1,12.5-2.4,11.6-8.6
					c-1-7.1-9-8.8-14.3-5.3C307.1,503.7,308.9,507,310.9,505.6L310.9,505.6z"/>
			</g>
		</g>
		<g>
			<g>
				<path class="st1" d="M293.3,539.8c0,3.1,0,6.2,0,9.3c0,2.4,3.8,2.4,3.8,0c0-3.1,0-6.2,0-9.3
					C297.1,537.4,293.3,537.4,293.3,539.8L293.3,539.8z"/>
			</g>
		</g>
		<g>
			<g>
				<path class="st1" d="M301.9,542.5c1,3.2,1.6,6.4,1.8,9.8c0.1,2.4,3.9,2.4,3.8,0c-0.2-3.7-0.8-7.3-1.9-10.8
					C304.8,539.2,301.2,540.2,301.9,542.5L301.9,542.5z"/>
			</g>
		</g>
		<g>
			<g>
				<path class="st1" d="M344.5,534.3c0.2,4.4,1,8.8,2.2,13c0.7,2.3,4.3,1.3,3.6-1c-1.2-3.9-1.9-7.9-2.1-12
					C348.1,531.9,344.4,531.9,344.5,534.3L344.5,534.3z"/>
			</g>
		</g>
		<g>
			<g>
				<path class="st1" d="M350.3,531.2c1.9,0.9,3.9,1.7,6,2.1c2.4,0.5,3.4-3.1,1-3.6c-1.8-0.4-3.5-0.9-5.1-1.7
					C350,526.9,348.1,530.2,350.3,531.2L350.3,531.2z"/>
			</g>
		</g>
		<g>
			<g>
				<path class="st1" d="M336.1,500.8c2.4,0,2.4-3.8,0-3.8C333.6,497,333.6,500.8,336.1,500.8L336.1,500.8z"/>
			</g>
		</g>
	</g>
	<g>
		<g>
			<g>
				<path class="st1" d="M116.6,496.4c3.4-2.3,11.3-0.8,8.2,5.1c-1.7,3.2-6.1,2.8-8.2,0.7c-5-4.9,0.1-12.4,5.4-14.1
					c6.9-2.1,10,5.4,9.6,11c-0.3,4.3-2.9,8.3-6.6,10.5c-8.2,4.8-18.1,0-22.7-7.5c-2.4-4-4.3-9.5-3.3-14.1c1.1-5.4,9.8-11,11.9-2.9
					c1.2-0.3,2.4-0.7,3.6-1c-1.5-5.3,3.2-8.6,7.7-9.7c1.6-0.4,3.5-0.7,5.1-0.3c2.2,0.5,5.6,4.3,2,5.6c-2.3,0.8-1.4,4.1,1,3.6
					c5.1-1,10.2-1.8,15.4-2.3c4.8-0.5,10.4-1.2,14.5,1.8c6.1,4.6,1.7,11.5-4.1,13.6c-4.8,1.7-10.3,0.9-15.2,0.8
					c-2.5,0-2.4,3.5,0,3.8c9.3,0.9,19,10.8,12.6,20.2c-4.9,7.2-19,8-26.7,8.6c-8.9,0.8-18.5,0.6-26.9-2.6c-4.1-1.6-8.2-4.3-9.1-9
					c-1.3-6.7,4.1-11.6,10.5-11.5c2.4,0.1,2.4-3.7,0-3.8c-11.4-0.3-18.8,12.5-11.4,21.8c7.9,9.9,25.7,9.7,37,8.8
					c10.7-0.9,28.5-2.1,31.9-14.8c3.1-11.7-6.9-20.5-17.7-21.6c0,1.3,0,2.5,0,3.8c6.9,0.1,14.6,1.1,20.6-3.1c4.2-3,6.9-8.2,4.9-13.3
					c-5.2-13-27.2-6.8-37.1-4.8c0.3,1.2,0.7,2.4,1,3.6c2.9-1,4.5-3.6,4.1-6.7c-0.5-3.8-3.8-5.9-7.4-6.3c-8.4-0.9-18.7,5.4-16.1,14.9
					c0.6,2.3,4.2,1.3,3.6-1c-1.4-5.5-7.3-8.2-12.4-5.9c-5.7,2.6-7.6,9.2-6.8,15c1.8,13.8,16,27.1,30.4,20.3
					c5.8-2.8,9.7-8.8,9.8-15.2c0.1-5.4-3.1-14.1-9.4-14.6c-12.1-1.1-22.2,18.3-8.5,23.4c5.6,2.1,12.5-2.4,11.6-8.6
					c-1-7.1-9-8.8-14.3-5.3C112.7,494.5,114.6,497.7,116.6,496.4L116.6,496.4z"/>
			</g>
		</g>
		<g>
			<g>
				<path class="st1" d="M99,530.6c0,3.1,0,6.2,0,9.3c0,2.4,3.8,2.4,3.8,0c0-3.1,0-6.2,0-9.3C102.7,528.1,99,528.1,99,530.6
					L99,530.6z"/>
			</g>
		</g>
		<g>
			<g>
				<path class="st1" d="M107.6,533.3c1,3.2,1.6,6.4,1.8,9.8c0.1,2.4,3.9,2.4,3.8,0c-0.2-3.7-0.8-7.3-1.9-10.8
					C110.5,530,106.9,531,107.6,533.3L107.6,533.3z"/>
			</g>
		</g>
		<g>
			<g>
				<path class="st1" d="M150.2,525.1c0.2,4.4,1,8.8,2.2,13c0.7,2.3,4.3,1.3,3.6-1c-1.2-3.9-1.9-7.9-2.1-12
					C153.8,522.7,150,522.7,150.2,525.1L150.2,525.1z"/>
			</g>
		</g>
		<g>
			<g>
				<path class="st1" d="M156,522c1.9,0.9,3.9,1.7,6,2.1c2.4,0.5,3.4-3.1,1-3.6c-1.8-0.4-3.5-0.9-5.1-1.7
					C155.7,517.7,153.8,520.9,156,522L156,522z"/>
			</g>
		</g>
		<g>
			<g>
				<path class="st1" d="M141.7,491.6c2.4,0,2.4-3.8,0-3.8C139.3,487.8,139.3,491.6,141.7,491.6L141.7,491.6z"/>
			</g>
		</g>
	</g>
	<g>
		<g>
			<g>
				<path class="st1" d="M352.2,348.1c3.5-2.5,8.6-3.1,11.3,1.1c2.7,4.2-0.9,9.3-5.5,9.5c-9.5,0.5-10.1-11.9-5.5-17.3
					c2.3-2.7,5.8-4.5,9.2-5.4c4.5-1.1,7.3,1.8,9.2,5.6c3.4,6.6,2.7,14.5-1.9,20.4c-9.9,12.6-28.2,7.1-36-4.6
					c-4-5.9-6.9-14.2-5.2-21.3c0.9-3.6,3.1-6.9,6.5-8.4c4.2-1.8,8.9,0.3,9.9,4.9c1.6-0.4,3.2-0.9,4.8-1.3
					c-2.2-7.1,4.1-11.8,10.2-13.5c2.6-0.7,5.5-1.2,8.1-0.4c1.8,0.5,3.6,1.4,4.1,3.3c0.5,1.7,0.1,3.9-1.9,4.4
					c-3.1,0.9-1.8,5.4,1.3,4.8c7.2-1.5,14.5-2.6,21.9-3.3c7-0.7,16-1.7,21.3,4c6,6.4,0.3,14.4-6.4,17.1c-6.9,2.8-14.9,1.6-22.2,1.6
					c-3.3,0-3.2,4.7,0,5c12.7,1.1,25.3,13.7,18.2,26.9c-3.1,5.8-9.7,8.2-15.7,9.7c-6.8,1.7-13.9,2.9-20.9,3.5
					c-13.2,1.3-28.4,1.2-40.6-4.4c-5.9-2.7-10.9-7.5-10.9-14.4c0.1-8.1,7-13.6,14.8-13.2c3.2,0.1,3.2-4.9,0-5
					c-11.9-0.5-21.8,9.9-19.5,22c2.6,13.3,17.6,17.7,29.2,19.5c15.6,2.4,31.7,0.8,47-2.6c11.6-2.6,22.7-8.4,23.4-21.7
					c0.7-14.4-11.8-24-25.1-25.2c0,1.7,0,3.3,0,5c9.2,0.1,19.6,1.5,27.7-3.8c6-4,10.3-11.2,7.6-18.4c-2.9-7.7-11.4-10.7-18.9-11
					c-10.7-0.3-22,1.9-32.4,4c0.4,1.6,0.9,3.2,1.3,4.8c4.2-1.2,6.3-5.3,5.6-9.5c-0.8-5.2-5.7-8-10.6-8.3
					c-11.1-0.8-25.8,7.7-21.7,20.5c1,3.1,5.5,1.8,4.8-1.3c-1.6-7.5-10.1-11.3-17-8.1c-9,4.2-10.8,14.8-8.9,23.6
					c3.8,17.8,22.4,33.7,40.9,25.3c8.2-3.7,13.7-12,14-21c0.2-7.3-3.9-18.9-12.2-20.4c-16.8-2.9-31.3,24.2-13.1,32
					c7.5,3.2,17.1-2.3,16.6-10.9c-0.6-10.1-12.4-13.2-19.8-8C347,345.6,349.5,349.9,352.2,348.1L352.2,348.1z"/>
			</g>
		</g>
		<g>
			<g>
				<path class="st1" d="M327.9,395.5c0,4.3,0,8.6,0,12.8c0,3.2,5,3.2,5,0c0-4.3,0-8.6,0-12.8C332.9,392.3,327.9,392.3,327.9,395.5
					L327.9,395.5z"/>
			</g>
		</g>
		<g>
			<g>
				<path class="st1" d="M339.8,399.2c1.4,4.4,2.3,8.9,2.5,13.6c0.1,3.2,5.1,3.2,5,0c-0.2-5.1-1.1-10.1-2.7-14.9
					C343.6,394.9,338.8,396.2,339.8,399.2L339.8,399.2z"/>
			</g>
		</g>
		<g>
			<g>
				<path class="st1" d="M398.7,387.9c0.3,6.1,1.4,12.1,3.1,18c0.9,3.1,5.7,1.8,4.8-1.3c-1.6-5.5-2.6-11-2.9-16.7
					C403.6,384.7,398.6,384.7,398.7,387.9L398.7,387.9z"/>
			</g>
		</g>
		<g>
			<g>
				<path class="st1" d="M406.7,383.5c2.6,1.3,5.4,2.3,8.3,2.9c3.1,0.7,4.5-4.1,1.3-4.8c-2.5-0.5-4.8-1.3-7.1-2.4
					C406.4,377.8,403.8,382.1,406.7,383.5L406.7,383.5z"/>
			</g>
		</g>
		<g>
			<g>
				<path class="st1" d="M387,341.4c3.2,0,3.2-5,0-5C383.7,336.4,383.7,341.4,387,341.4L387,341.4z"/>
			</g>
		</g>
	</g>
	<g>
		<g>
			<path class="st1" d="M26.9,172.3c-1.7-3.6-6.2-4.5-9.6-2.8c-4.2,2-5.2,6.9-4.7,11.1c0.5,4.5,2.3,8.7,6.8,10.4
				c4.3,1.6,9.3,0.5,13.5-0.8c3.1-0.9,1.8-5.8-1.3-4.8c-3.7,1.1-10.1,3.1-12.7-0.9c-1.3-2.1-1.8-5.5-1.2-7.9c0.5-2,3.6-4.5,4.9-1.7
				C23.9,177.7,28.2,175.2,26.9,172.3L26.9,172.3z"/>
		</g>
	</g>
	<g>
		<g>
			<path class="st1" d="M27.2,175.2c0-2.8,1.1-5.5,3.3-7.4c3.7-3.1,5.7-0.8,5.8,3.3c0.2,5.6-2.4,11.1-6.9,14.4
				c-2.6,1.9-0.1,6.2,2.5,4.3c7.3-5.4,13.2-18.1,7.4-26.8c-2.5-3.8-7.8-2.1-10.9,0c-4.1,2.8-6.2,7.3-6.3,12.1
				C22.2,178.4,27.2,178.4,27.2,175.2L27.2,175.2z"/>
		</g>
	</g>
	<g>
		<g>
			<path class="st1" d="M202.6,286.6c-4.1-5.9-14-4.4-14.9,3.2c-1.1,9.6,9.4,12.6,16.8,13.6c3.2,0.4,3.2-4.6,0-5
				c-4.2-0.5-9.8-1.2-11.5-5.8c-0.6-1.6-0.5-3.6,1.2-4.4c1.3-0.6,3.3-0.3,4.1,0.9C200.1,291.7,204.5,289.2,202.6,286.6L202.6,286.6z
				"/>
		</g>
	</g>
	<g>
		<g>
			<path class="st1" d="M204.5,292.9c1.5-1.6,6.7-6.6,8.4-2.8c1.6,3.6-3.3,6.6-5.7,8.2c-2.7,1.7-0.2,6.1,2.5,4.3
				c5-3.2,11.3-9.1,7.2-15.6c-4.1-6.5-12.1-1.7-15.9,2.4C198.8,291.7,202.3,295.2,204.5,292.9L204.5,292.9z"/>
		</g>
	</g>
	<g>
		<g>
			<path class="st1" d="M386.2,151.5c0.8-3.9-1.3-7.3-5-8.7c-4-1.5-7.9,0.3-10.4,3.6c-2.2,2.8-4.4,8-2.9,11.6c0.8,1.9,2.6,3,4.2,4.2
				c3.1,2.4,6.2,4.8,9.3,7.2c2.5,2,5-2.4,2.5-4.3c-2-1.5-4-3.1-6-4.6c-1.6-1.2-5.2-3.1-5.4-5.2c-0.1-1.5,1-3.9,1.8-5
				c0.9-1.4,1.8-2.4,3.4-2.6c1.4-0.2,4.2,0.1,3.7,2.6C380.7,153.3,385.6,154.6,386.2,151.5L386.2,151.5z"/>
		</g>
	</g>
	<g>
		<g>
			<path class="st1" d="M383.6,154.3c4.1-0.5,8.2-0.9,12.4-1.4c0.8-0.1,3.3-0.7,4.1-0.4c1.8,0.7,1.5,3.9,1.2,5.3
				c-1,6.5-7.1,11.5-13.6,11.2c-3.2-0.2-3.2,4.8,0,5c9.3,0.5,17.7-7.1,18.6-16.3c0.4-3.5-0.2-8.5-4.1-9.9c-2.4-0.8-5.4,0-7.9,0.3
				c-3.6,0.4-7.2,0.8-10.8,1.2C380.4,149.7,380.4,154.7,383.6,154.3L383.6,154.3z"/>
		</g>
	</g>
	<g>
		<g>
			<path class="st1" d="M223.9,501.5c-1.5-5.3-6.8-21.3-14.9-14.1c-7.4,6.6,2.8,19,7.1,24.2c2.1,2.5,5.6-1.1,3.5-3.5
				c-3.2-3.8-6.8-8-7.8-13c-0.1-0.7-0.2-1.4-0.2-2.2c0.9-0.4,1.8-0.8,2.7-1.1c0.5,0.2,1.4,2.5,1.7,3.1c1.3,2.5,2.3,5.2,3,7.9
				C220,505.9,224.8,504.6,223.9,501.5L223.9,501.5z"/>
		</g>
	</g>
	<g>
		<g>
			<path class="st1" d="M221.3,506.8c1.7-0.3,3-1.3,4.1-2.5c0.8-0.8,2.3-3.4,3.6-3c2.4,0.8,0.2,3.7-0.9,4.4
				c-2.4,1.4-5.5,0.9-8.2,0.7c-3.2-0.3-3.2,4.7,0,5c4.1,0.4,8.4,0.5,11.8-2.1c2.8-2.1,4.2-5.7,2.7-9.1c-1.4-2.9-4.5-4.7-7.7-3.6
				c-2.7,1-4,4.8-6.7,5.3C216.8,502.5,218.1,507.4,221.3,506.8L221.3,506.8z"/>
		</g>
	</g>
	<g>
		<g>
			<path class="st1" d="M65,599c-0.3-2-1.7-3.3-3.6-3.8c-1.9-0.5-4.2,1.8-2.8,3.7c2.1,3,4.3,6,6.4,9c0.8,1.1,2.2,1.6,3.4,0.9
				c5.3-3,9-7.6,10.9-13.4c1-3.1-3.8-4.4-4.8-1.3c-1.5,4.5-4.5,8.1-8.6,10.4c1.1,0.3,2.3,0.6,3.4,0.9c-2.1-3-4.3-6-6.4-9
				c-0.9,1.2-1.9,2.4-2.8,3.7c0,0.1,0.1,0.2,0.1,0.3C60.6,603.5,65.5,602.2,65,599L65,599z"/>
		</g>
	</g>
	<g>
		<g>
			<path class="st1" d="M274.8,690.3c0.1,4.6,0.9,9.2,2.4,13.6c0.5,1.5,2.2,2.3,3.7,1.5c3.6-2,6.5-5,8.3-8.7
				c1.4-2.9-2.9-5.4-4.3-2.5c-1.5,3-3.6,5.3-6.5,7c1.2,0.5,2.4,1,3.7,1.5c-1.4-4-2.1-8-2.2-12.2C279.8,687,274.8,687,274.8,690.3
				L274.8,690.3z"/>
		</g>
	</g>
	<g>
		<g>
			<path class="st1" d="M299.8,27c0.9,3.1,1.9,6.3,2.8,9.4c0.4,1.2,1.8,2.3,3.1,1.7c3.9-1.6,6.9-4.9,7.6-9.1
				c0.2-1.3-0.3-2.7-1.7-3.1c-1.2-0.3-2.9,0.4-3.1,1.7c-0.4,2.4-1.7,4.7-4.1,5.6c1,0.6,2.1,1.2,3.1,1.7c-0.9-3.1-1.9-6.3-2.8-9.4
				C303.7,22.6,298.8,23.9,299.8,27L299.8,27z"/>
		</g>
	</g>
</g>
<g>
	<g>
		<path class="st1" d="M107.8,187.9c3.2-3.3,6.4-6.7,9.6-10c-0.3-0.2-0.6-0.3-0.8-0.5c-0.5,2.6-1.2,5.2-1.9,7.8
			c-0.2,0.6,0.8,0.9,1,0.3c0.7-2.6,1.3-5.2,1.9-7.8c0.1-0.5-0.5-0.9-0.8-0.5c-3.2,3.3-6.4,6.7-9.6,10
			C106.7,187.6,107.4,188.4,107.8,187.9L107.8,187.9z"/>
	</g>
</g>
<g>
	<g>
		<path class="st1" d="M379.9,324.8c3.3-6.3,7.2-12.3,11.7-17.8c-0.9-0.4-1.7-0.7-2.6-1.1c-0.5,6.1-4.2,11.2-4.8,17.3
			c-0.2,1.9,2.8,1.9,3,0c0.6-6,4.3-11.2,4.8-17.3c0.1-1.2-1.8-2.1-2.6-1.1c-4.6,5.8-8.7,11.9-12.1,18.4
			C376.4,325,379,326.5,379.9,324.8L379.9,324.8z"/>
	</g>
</g>
<g>
	<g>
		<path class="st1" d="M43.5,655.9c4.4-3.5,8.7-7,13-10.6c-0.3-0.2-0.6-0.3-0.8-0.5c-0.5,2.1-1.4,3.8-2.9,5.3
			c-0.4,0.5,0.3,1.2,0.7,0.7c1.6-1.7,2.6-3.5,3.1-5.8c0.1-0.5-0.5-0.8-0.8-0.5c-4.3,3.6-8.6,7.1-13,10.6
			C42.3,655.6,43,656.3,43.5,655.9L43.5,655.9z"/>
	</g>
</g>
</svg>
