<svg id="图层_1" data-name="图层 1" xmlns="http://www.w3.org/2000/svg" viewBox="0 0 123 172"><defs><style>.cls-1{fill:#a8c9ea;}.cls-2{fill:#fff;}.cls-3{fill:#f4a76e;}.cls-4{fill:#d4844d;}.cls-5{fill:#fff9f3;}.cls-6{fill:#f7eee7;}.cls-7{fill:#eee0d4;}.cls-8{fill:#eee3d9;}.cls-9{fill:#eee4db;}.cls-10{fill:#f3e6dc;}.cls-11{fill:#76706d;}</style></defs><title>学习</title><path class="cls-1" d="M161,75.5A61.67,61.67,0,0,0,99.5,14h0A61.67,61.67,0,0,0,38,75.5h0A61,61,0,0,0,48,109h0l50.5,77L150,110.51q.42-.6.84-1.23L151,109h0a61,61,0,0,0,10-33.5Z" transform="translate(-38 -14)"/><rect class="cls-2" x="6" y="6" width="110" height="110" rx="55"/><path class="cls-3" d="M53.73,58.17C70,48,87,45.88,96.77,54.82c1.72-8.38,10.87-10.82,28.69-7.26,0,0,3.44,9.5,8.61,22.91,4.59,11.94,8,27.94,8,27.94-13-8.87-24.33-7.47-36.15.56C95.6,93,82.66,94.23,68.65,98.41,69.42,86.06,63.05,68.44,53.73,58.17Z" transform="translate(-38 -14)"/><path class="cls-4" d="M55.44,58.4c16-10,32.64-12,42.2-3.28,1.69-8.23,10.67-10.62,28.14-7.13,0,0,3.38,9.32,8.44,22.47,4.51,11.71,7.88,27.4,7.88,27.4-12.8-8.7-23.86-7.32-35.45.55-10.15-5.82-22.84-4.65-36.58-.55C70.82,85.75,64.58,68.48,55.44,58.4Z" transform="translate(-38 -14)"/><path class="cls-5" d="M57.17,58.73S69.22,71,69.8,81.65s-1.15,14-1.15,14S83,85.56,95,88.91,106,96.18,106,96.18s7.46-10.06,19.51-8.94,16.64,8.94,16.64,8.94L124.31,48.67s-20.08-3.35-23.53,2.24-4.59,7.26-4.59,7.26S89.88,48.11,74.39,52,57.17,58.73,57.17,58.73Z" transform="translate(-38 -14)"/><path class="cls-6" d="M57.17,59.29s12,12.3,12.63,22.92-1.15,14-1.15,14S83,86.12,95,89.47,106,96.74,106,96.74s7.46-10.06,19.51-8.95,16.64,8.95,16.64,8.95L124.31,49.23s-20.08-3.35-23.53,2.24-4.59,7.26-4.59,7.26-6.31-10.06-21.8-6.15S57.17,59.29,57.17,59.29Z" transform="translate(-38 -14)"/><path class="cls-7" d="M57.17,61.53s12,12.29,12.63,22.91-1.15,14-1.15,14S83,88.35,95,91.71,106,99,106,99s7.46-10.06,19.51-8.94S142.1,99,142.1,99l-17.79-47.5s-20.08-3.36-23.53,2.23S96.19,61,96.19,61s-6.31-10.06-21.8-6.15S57.17,61.53,57.17,61.53Z" transform="translate(-38 -14)"/><path class="cls-5" d="M57.17,59.85s12,12.3,12.63,22.91-1.15,14-1.15,14S83,86.68,95,90,106,97.29,106,97.29s7.46-10.05,19.51-8.94,16.64,8.94,16.64,8.94l-17.79-47.5S104.23,46.44,100.78,52s-4.59,7.26-4.59,7.26-6.31-10.06-21.8-6.15S57.17,59.85,57.17,59.85Z" transform="translate(-38 -14)"/><path class="cls-8" d="M57.17,60.41s12,12.29,12.63,22.91-1.15,14-1.15,14S83,87.24,95,90.59,106,97.85,106,97.85s7.46-10.06,19.51-8.94,16.64,8.94,16.64,8.94l-17.79-47.5S104.23,47,100.78,52.58s-4.59,7.27-4.59,7.27-6.31-10.06-21.8-6.15S57.17,60.41,57.17,60.41Z" transform="translate(-38 -14)"/><path class="cls-5" d="M57.75,58.17s12,12.3,12.62,22.92-1.15,14-1.15,14S83.57,85,95.62,88.35s10.9,7.27,10.9,7.27S114,85.56,126,86.68s16.64,8.94,16.64,8.94L124.88,48.11s-20.08-3.35-23.52,2.24-4.59,7.26-4.59,7.26-6.32-10-21.81-6.14S57.75,58.17,57.75,58.17Z" transform="translate(-38 -14)"/><path class="cls-5" d="M57.17,57.61s12,12.3,12.63,22.92-1.15,14-1.15,14S83,84.44,95,87.79,106,95.06,106,95.06s7.46-10.06,19.51-8.94,16.64,8.94,16.64,8.94l-17.79-47.5s-20.08-3.36-23.53,2.23-4.59,7.27-4.59,7.27S89.88,47,74.39,50.91,57.17,57.61,57.17,57.61Z" transform="translate(-38 -14)"/><path class="cls-9" d="M96.19,57.38,106,96.18a18,18,0,0,1,7.46-5.79c4.59-1.74,0-1.74,0-1.74s-5.55-2.26-10.33-16.21c-5.17-15.06-1.86-23.45-1.15-24.33A65.86,65.86,0,0,0,96.19,57.38Z" transform="translate(-38 -14)"/><path class="cls-10" d="M89.88,52s6.91,1.72,7.88,5.16S106,95.62,106,95.62s1-3.44-5.31-5.16-6.27-2.3-6.27-2.3,5.79-1.15,3.86-12S89.88,52,89.88,52Z" transform="translate(-38 -14)"/><path class="cls-11" d="M65.15,57.32c.83,1.1,2,2.3,3.44,1.29,1.21-.87,1.16-2.61,3.09-2.19a5.68,5.68,0,0,0,3.07.22c1.59-.42,2.91-1.45,4.49-1.9,2.08-.6,3.1.69,4.88,1.28a4.79,4.79,0,0,0,3.1-.2,9.09,9.09,0,0,1,7.16.7c.57.31,1.07-.56.5-.86a10,10,0,0,0-6.75-1.13c-1.06.21-2.34.86-3.45.63a9.34,9.34,0,0,1-2.18-1.11,4.59,4.59,0,0,0-2.63-.55,8.57,8.57,0,0,0-2.89,1c-1.11.55-2.25,1.38-3.55,1.31-.76,0-1.49-.72-2.23-.8a1.86,1.86,0,0,0-1.49.35c-1,.68-1.72,4-3.69,1.42-.39-.51-1.25,0-.87.5Z" transform="translate(-38 -14)"/><path class="cls-11" d="M68.15,61.79a3.07,3.07,0,0,0,.91,1.67.51.51,0,0,0,.79-.1,7.57,7.57,0,0,1,.82-1.26,2.59,2.59,0,0,1,3.13-.35c.67.33,1.22,1.28,2,1.38,1.43.16,3.14-1.85,4.18-2.61l-.73-.3A2.26,2.26,0,0,0,81.51,62,3.48,3.48,0,0,0,83,61.61c.35-.16,2.88-2.21,3.07-.85a.51.51,0,0,0,.74.3c1.11-.61,2.35.22,3.6.2,1.43,0,3-1.52,4.3-1.17a.5.5,0,0,0,.26-1,2.43,2.43,0,0,0-1.83.13,7.24,7.24,0,0,1-5.71.36.49.49,0,0,0-.49.13l-.64.45.74.3c-.58-4.15-5.8,2.71-6.78-.55a.5.5,0,0,0-.73-.3,20,20,0,0,1-2.24,1.66c-1.1.59-1.54.52-2.78-.26-.77-.49-1.49-1.56-2.53-1.48-1.39.1-2.36,2.29-3,3.29l.79-.1-.65-1.24c-.14-.63-1.1-.36-1,.27Z" transform="translate(-38 -14)"/><path class="cls-11" d="M70.33,66.88c.2.92.67,2.59,1.9,2.35.69-.14,1-.89,1.48-1.38C75,66.4,76,66,77.69,66.77c3.55,1.6,7.35,1.63,10.2-1.42l-.78-.1L88.52,68a.51.51,0,0,0,.79.11l3.18-3.72-.84-.22a10.16,10.16,0,0,0,1.2,2.34.51.51,0,0,0,.78.1l2.4-2c.5-.41-.21-1.11-.71-.71l-2.39,1.95.78.1a6.38,6.38,0,0,1-1.09-2.1.51.51,0,0,0-.84-.22L88.6,67.35l.79.1L88,64.74a.51.51,0,0,0-.79-.1A7.14,7.14,0,0,1,81.67,67a6.77,6.77,0,0,1-3.2-.88c-.55-.32-1-.93-1.68-1.08a2.84,2.84,0,0,0-2.39.85c-1.08.81-2.53,3.42-3.11.77-.13-.63-1.1-.36-1,.27Z" transform="translate(-38 -14)"/><path class="cls-11" d="M99,54.69c.25,1.5,1.69.5,2.3-.14,1-1.11.72-1.71,2.71-1.81.07,0,.44.38.62.3,1-.41,1.35-1.08,2.06-2l-.79-.1c.61.87,1,2.35,2.4,2.09.74-.14,1.15-1.26,1.72-1.57,1-.56.93,0,1.81.33a2.39,2.39,0,0,0,1.47.16c1.31-.25,1.68-1,3.18-1,.78,0,1.55.16,2.32.14,1.31,0,2.42-.93,3.76-1,.64,0,.64-1,0-1a15.52,15.52,0,0,0-2.75.74c-1.19.29-2-.32-3.06-.32A4.24,4.24,0,0,0,115,50c-.92.36-2,1-3.08.58-.12,0-.86-.85-1-.92a.5.5,0,0,0-.61.08c-1,1-2.29,2.55-3.56.76a.5.5,0,0,0-.78-.11l-1.21,1.52a1.11,1.11,0,0,1-.81-.24,5.53,5.53,0,0,0-1,0c-.64.14-3.1,2.18-3,2.8-.11-.64-1.07-.37-1,.26Z" transform="translate(-38 -14)"/><path class="cls-11" d="M99.34,60.65c.16-1.65,1-2.11,1.77-.54a.5.5,0,0,0,.78.1c.8-1,.67-3.53,3.41-1a.51.51,0,0,0,.79-.1,3.84,3.84,0,0,1,4.2-2c.63.07.79.35,1.45.29,1.59-.12,2.77-1.65,4.37-1.93,1.86-.32,3.39,1,5.2.49a3.84,3.84,0,0,0,2.3-1.92l-.69.18.06.1a.5.5,0,0,0,1,0c0-.57-.06-.67-.55-1a.51.51,0,0,0-.69.18c-1.6,2.74-3.9.68-6.16.86s-3.68,1.79-6,1.75-4.09.23-5.32,2.49l.78-.1c-.94-.87-2.16-1.87-3.52-1.29s-.66,1.44-1.31,2.28l.79.1c-.42-.85-1-2.93-2.32-2.44-1.15.41-1.22,2.57-1.31,3.49-.06.64.94.64,1,0Z" transform="translate(-38 -14)"/><path class="cls-11" d="M104.3,66.11c.15-3.89,4.2-2.35,6.08-1.51.76.33.75.44,1.54.2s2-1.4,2.86-1.87c1.32-.68,6.54-2.94,6.88.32a.51.51,0,0,0,.75.43c1.22-.77,0-.11,1.14-1l.08-.1a1.91,1.91,0,0,1,2-1.29.5.5,0,0,0,1,.27,1.37,1.37,0,0,0-1-1.8c-1.9-.5-2.54,2.32-3.71,3.07l.75.43c-.55-5.25-7.74-1.45-10.12-.13a2.08,2.08,0,0,1-2.29.22c-.39-.13-.75-.37-1.14-.51a5.22,5.22,0,0,0-2.82-.26,3.68,3.68,0,0,0-3,3.54c0,.65,1,.65,1,0Z" transform="translate(-38 -14)"/><path class="cls-11" d="M103,73.94c-1.07-1.44,3.13-2,3.79-1.12a.51.51,0,0,0,.71,0c.64-.62,3.61-3.74,4.65-3.14.49.29,0,.93.78,1.25.56.23,1.17-.16,1.62-.41,2-1.14,4.09-3.31,6.45-1.06a.52.52,0,0,0,.71,0,3,3,0,0,1,2.71-.76c.45,0,.45.23,1,.15a1.65,1.65,0,0,0,1.11-.61l-.79-.1.21,1.69c-.14.63.83.9,1,.27a3.2,3.2,0,0,0-.31-2.46.5.5,0,0,0-.79-.1c-.47.49-2.14-.14-2.87,0-.45.1-1,.67-1.33.7-.71.06-1.49-.61-2.32-.71a5.53,5.53,0,0,0-3.11.65,26.85,26.85,0,0,1-2.32,1.62c-1.66-.15-.38-.6-.85-1-.65-.51-.53-.54-1.38-.31a9.39,9.39,0,0,0-2.15,1.33c-.44.31-1.64,1.62-2,1.67-.7.08-1.46-.56-2.35-.5-1.39.09-2.45,1.15-3.38,2.08a.5.5,0,0,0-.07.61l.54.73c.38.51,1.24,0,.86-.51Z" transform="translate(-38 -14)"/><path class="cls-11" d="M104.54,81.16c0-1.32.77-1.89,2.23-1.71.89-.75,1.63-.82,2.24-.19.24.08.36.36.61.43a1.13,1.13,0,0,0,1.07-.08c.66-.32,1.17-1.39,1.68-1.93a6.4,6.4,0,0,1,1.5-1.39,2.62,2.62,0,0,1,2.58.1c1.59.7,2.61,1.78,4.49,1.62,2-.16,3.39-1.69,4.6-3.17l-.84-.22c.92,2.24,3.09,1.31,4.49,0,.48-.43-.23-1.14-.71-.71l-2.81.4c-.13-.31-.58-.55-.84-.22-1.2,1.47-2.34,2.78-4.37,2.78-2.23,0-2.65-1.53-4.45-2.16s-2.89.76-4.06,1.92c-.68.67-1.27,2-2.24,1.84-.31,0-1-.63-1.36-.75a4,4,0,0,0-1.57-.13,3.75,3.75,0,0,0-3.2,3.25c-.12.63.84.9,1,.27Z" transform="translate(-38 -14)"/><path class="cls-11" d="M107.2,86.71a2.88,2.88,0,0,1,2-2.45c.77-.49,1.51-.28,2.23.63.06.4.59.45.84.22s3.17-3.68,3.54-1.43a.5.5,0,0,0,.83.22c.48-.54,1.6-2.32,2.28-2.51,1.13-.32.85.22,1.64.69a2.48,2.48,0,0,0,2.19.13c1-.34,1.55-1.2,2.45-1.65,1.53-.77,2.68-.16,4.11.43,1.08.44,1.7.89,2.79.2l-.73-.3.24.75c.2.61,1.17.35,1-.27l-.25-.74a.5.5,0,0,0-.73-.3c-1.06.66-2.33-.69-3.23-1a4.48,4.48,0,0,0-2.15-.17c-1.74.27-2.71,2-4.43,1.85-1.35-.09-.82-.4-1.81-.81a1.46,1.46,0,0,0-.82-.13c-1.27.21-2.45,2.24-3.23,3.11l.84.22a1.7,1.7,0,0,0-1.8-1.61c-1.53,0-2.43,1.69-3.41,2.61l.84.22c-.55-3.63-6.35-.83-6.17,2.08,0,.64,1,.65,1,0Z" transform="translate(-38 -14)"/><path class="cls-11" d="M73.71,73.46c.4,3,.4,6.43,1.25,9.32.35,1.17.78,1.22,2,1.21,6.43,0,12.88-.51,19.31-.76.24,0,.54-.22.5-.5Q96.05,77.36,95,72.05a.51.51,0,0,0-.48-.37q-10,.15-19.89,1.23c-.63.07-.64,1.07,0,1,4.72-.51,9.45-.88,14.19-1.08a21,21,0,0,1,3.8-.12c1.33.21,1.28.1,1.78,1.51a22.37,22.37,0,0,1,.65,3.83c.16,1,.74,2.61.31,3.55.08.76-.3,1-1.12.71l-2,.07-4,.16-6.93.27a17,17,0,0,1-4,.16l-1,0a3.29,3.29,0,0,1-.73-2.1c-.54-2.41-.67-5-1-7.45-.08-.63-1.08-.64-1,0Z" transform="translate(-38 -14)"/></svg>