<svg id="图层_1" data-name="图层 1" xmlns="http://www.w3.org/2000/svg" viewBox="0 0 123 172"><defs><style>.cls-1{fill:#a8c9ea;}.cls-2{fill:#fff;}.cls-3{fill:#eb698e;}.cls-4{fill:#bd335f;}.cls-5{fill:#507c9a;}.cls-6{fill:#7eb4c6;}</style></defs><title>换衣服</title><path class="cls-1" d="M161,75.5A61.67,61.67,0,0,0,99.5,14h0A61.67,61.67,0,0,0,38,75.5h0A61,61,0,0,0,48,109h0l50.5,77L150,110.51q.42-.6.84-1.23L151,109h0a61,61,0,0,0,10-33.5Z" transform="translate(-38 -14)"/><rect class="cls-2" x="6" y="6" width="110" height="110" rx="55"/><path class="cls-3" d="M109.73,110.81c-4.61,2.16-9.15,1.74-13.67,0-.6-16.46-2.79-31.76-7.72-45.06-3.85,13.42-4.86,29-5.17,45.06a34.13,34.13,0,0,1-17,0c-1-27.24-1.43-52.59,0-71.48a103.11,103.11,0,0,0,43.51,0C110.41,66.42,110.69,91.58,109.73,110.81Z" transform="translate(-38 -14)"/><path class="cls-4" d="M66.46,41.08a15.73,15.73,0,0,0,3.78,1.27c.63.12.89-.84.26-1A14.29,14.29,0,0,1,67,40.21c-.57-.28-1.08.59-.5.87Z" transform="translate(-38 -14)"/><path class="cls-4" d="M73.05,42.9q3.12.26,6.25.37c.64,0,.64-1,0-1q-3.14-.12-6.25-.37c-.64,0-.63,1,0,1Z" transform="translate(-38 -14)"/><path class="cls-4" d="M82.37,43.74c1.62-.1,3.24-.14,4.86-.1a.5.5,0,0,0,0-1c-1.62,0-3.24,0-4.86.1-.63,0-.64,1,0,1Z" transform="translate(-38 -14)"/><path class="cls-4" d="M90.91,43.42a17.55,17.55,0,0,0,3.9-.15c.64-.09.37-1.06-.26-1a17.06,17.06,0,0,1-3.64.11c-.65,0-.64,1,0,1Z" transform="translate(-38 -14)"/><path class="cls-4" d="M98.67,43.12l6-.9c.64-.1.37-1.06-.26-1l-6,.91c-.64.09-.37,1.06.26,1Z" transform="translate(-38 -14)"/><path class="cls-4" d="M106.68,41.85a9,9,0,0,0,2.74-.73c.59-.26.08-1.12-.5-.86a7.57,7.57,0,0,1-2.24.59c-.64.07-.64,1.07,0,1Z" transform="translate(-38 -14)"/><path class="cls-4" d="M66.61,41.75a10.39,10.39,0,0,1,0,2.84c-.09.63.87.9,1,.27a11.17,11.17,0,0,0,0-3.11c-.08-.63-1.09-.64-1,0Z" transform="translate(-38 -14)"/><path class="cls-4" d="M66.21,47.9,66.09,51c0,.65,1,.65,1,0l.12-3.07c0-.64-1-.64-1,0Z" transform="translate(-38 -14)"/><path class="cls-4" d="M66,55.34a17.22,17.22,0,0,0,.08,2.78c.06.63,1.06.64,1,0A17.22,17.22,0,0,1,67,55.34c0-.64-1-.64-1,0Z" transform="translate(-38 -14)"/><path class="cls-4" d="M65.91,61.62a9.81,9.81,0,0,1,.09,2c0,.65,1,.64,1,0a10.26,10.26,0,0,0-.13-2.21c-.1-.64-1.06-.37-1,.26Z" transform="translate(-38 -14)"/><path class="cls-4" d="M65.83,66.68A3.84,3.84,0,0,1,66,67.94c0,.64,1,.64,1,0a4.69,4.69,0,0,0-.22-1.53c-.19-.61-1.16-.35-1,.27Z" transform="translate(-38 -14)"/><path class="cls-4" d="M65.71,70.91V73a.5.5,0,0,0,1,0V70.91a.5.5,0,0,0-1,0Z" transform="translate(-38 -14)"/><path class="cls-4" d="M65.71,75.87A46.74,46.74,0,0,0,65.87,81c.06.64,1.06.64,1,0a46.74,46.74,0,0,1-.16-5.16c0-.64-1-.64-1,0Z" transform="translate(-38 -14)"/><path class="cls-4" d="M65.81,83.71v3.37a.5.5,0,0,0,1,0V83.71a.5.5,0,0,0-1,0Z" transform="translate(-38 -14)"/><path class="cls-4" d="M66,90.35a25.45,25.45,0,0,0-.1,3.38c0,.64,1,.64,1,0a25.45,25.45,0,0,1,.1-3.38c.06-.64-.94-.63-1,0Z" transform="translate(-38 -14)"/><path class="cls-4" d="M65.87,96.21l.22,2.48c0,.63,1,.64,1,0l-.22-2.48c-.05-.64-1.05-.64-1,0Z" transform="translate(-38 -14)"/><path class="cls-4" d="M66.6,102.36v2.08a.5.5,0,0,0,1,0v-2.08a.5.5,0,0,0-1,0Z" transform="translate(-38 -14)"/><path class="cls-4" d="M66.5,107.55l.23,1.68c.09.64,1,.37,1-.26l-.23-1.69c-.09-.63-1-.36-1,.27Z" transform="translate(-38 -14)"/><path class="cls-4" d="M108.34,42.84a27,27,0,0,1-.14,4.67c-.08.64.92.63,1,0a27,27,0,0,0,.14-4.67c0-.64-1-.64-1,0Z" transform="translate(-38 -14)"/><path class="cls-4" d="M108.16,50.28v2.38a.5.5,0,0,0,1,0V50.28a.5.5,0,0,0-1,0Z" transform="translate(-38 -14)"/><path class="cls-4" d="M108.26,54.74a32.07,32.07,0,0,0,.11,3.67c.06.64,1.06.65,1,0a32.07,32.07,0,0,1-.11-3.67c0-.64-1-.64-1,0Z" transform="translate(-38 -14)"/><path class="cls-4" d="M108.43,60.72a19.05,19.05,0,0,1,.42,3.84.5.5,0,0,0,1,0,20.37,20.37,0,0,0-.45-4.11c-.14-.63-1.1-.36-1,.27Z" transform="translate(-38 -14)"/><path class="cls-4" d="M108.85,67.84c0,1.45,0,2.91,0,4.36a.5.5,0,0,0,1,0c.06-1.45.07-2.91,0-4.36,0-.64-1-.65-1,0Z" transform="translate(-38 -14)"/><path class="cls-4" d="M108.75,74.38v2.88a.5.5,0,0,0,1,0V74.38a.5.5,0,0,0-1,0Z" transform="translate(-38 -14)"/><path class="cls-4" d="M108.9,80l.17,3.47c0,.64,1,.64,1,0L109.9,80c0-.65-1-.65-1,0Z" transform="translate(-38 -14)"/><path class="cls-4" d="M109,85.46a17.2,17.2,0,0,0-.28,4.3c0,.64,1,.64,1,0a16.1,16.1,0,0,1,.25-4c.12-.63-.85-.9-1-.26Z" transform="translate(-38 -14)"/><path class="cls-4" d="M108.86,91.64a29.94,29.94,0,0,0,.08,3.67c0,.64,1,.65,1,0a29.94,29.94,0,0,1-.08-3.67c0-.64-1-.64-1,0Z" transform="translate(-38 -14)"/><path class="cls-4" d="M108.67,97.69l-.12,2.78c0,.64,1,.64,1,0l.12-2.78c0-.64-1-.64-1,0Z" transform="translate(-38 -14)"/><path class="cls-4" d="M108.75,102.75v3.67a.5.5,0,0,0,1,0v-3.67a.5.5,0,0,0-1,0Z" transform="translate(-38 -14)"/><path class="cls-4" d="M108.27,107.71a21.09,21.09,0,0,1,.08,3.08c0,.64,1,.64,1,0a21.09,21.09,0,0,0-.08-3.08c-.06-.63-1.06-.64-1,0Z" transform="translate(-38 -14)"/><path class="cls-4" d="M85.47,46.22l-.23,3c0,.64,1,.64,1,0l.23-3c0-.65-1-.64-1,0Z" transform="translate(-38 -14)"/><path class="cls-4" d="M85.54,52.17l.11,1.38c.06.64,1.06.65,1,0l-.11-1.38c-.06-.64-1.06-.65-1,0Z" transform="translate(-38 -14)"/><path class="cls-4" d="M85.87,58.84l.3,1.39c.13.63,1.1.36,1-.26l-.3-1.39c-.14-.63-1.1-.36-1,.26Z" transform="translate(-38 -14)"/><path class="cls-4" d="M91.69,45.72V48.1a.5.5,0,0,0,1,0V45.72a.5.5,0,0,0-1,0Z" transform="translate(-38 -14)"/><path class="cls-4" d="M91.59,50.68a32.43,32.43,0,0,1,0,3.27c-.05.65.95.64,1,0a32.43,32.43,0,0,0,0-3.27c0-.64-1-.65-1,0Z" transform="translate(-38 -14)"/><path class="cls-4" d="M91.22,56.5a13.89,13.89,0,0,1-.7,2.77c-.22.61.75.87,1,.27a14.7,14.7,0,0,0,.7-2.78c.09-.63-.87-.9-1-.26Z" transform="translate(-38 -14)"/><path class="cls-4" d="M88,62.45a6.8,6.8,0,0,0,2.25,0c.63-.1.36-1.06-.27-1a5,5,0,0,1-1.72,0c-.62-.11-.89.85-.26,1Z" transform="translate(-38 -14)"/><path class="cls-4" d="M98.68,48.46A22.44,22.44,0,0,0,102.43,53a7.55,7.55,0,0,0,4.74,1.78c.64.07.64-.93,0-1a7,7,0,0,1-4.83-2.26A24.2,24.2,0,0,1,99.54,48c-.34-.54-1.21,0-.86.5Z" transform="translate(-38 -14)"/><path class="cls-4" d="M77.24,47.23a16.09,16.09,0,0,1-5.83,5.7.5.5,0,0,0,.51.86,17.09,17.09,0,0,0,6.18-6.06.5.5,0,0,0-.86-.5Z" transform="translate(-38 -14)"/><path class="cls-4" d="M88.48,62.77c-.2,3.08-2.49,5.5-2.87,8.55-.08.64.92.64,1,0,.38-3,2.67-5.43,2.87-8.55,0-.64-1-.64-1,0Z" transform="translate(-38 -14)"/><path class="cls-4" d="M88,66.39l2.68,5.75c.27.58,1.13.08.86-.51l-2.68-5.75c-.27-.58-1.13-.07-.86.51Z" transform="translate(-38 -14)"/><path class="cls-4" d="M85.38,74.35l-1,5.37c-.13.63.84.89,1,.26l1-5.36c.13-.63-.84-.9-1-.27Z" transform="translate(-38 -14)"/><path class="cls-4" d="M83.25,83.91c0,1.52,0,3,0,4.56,0,.64,1,.64,1,0,.07-1.52.09-3,0-4.56a.5.5,0,0,0-1,0Z" transform="translate(-38 -14)"/><path class="cls-4" d="M83,92.4a24.9,24.9,0,0,0-.41,4.8.5.5,0,0,0,1,0,23.68,23.68,0,0,1,.37-4.53c.12-.63-.85-.9-1-.27Z" transform="translate(-38 -14)"/><path class="cls-4" d="M82,102v5.75a.5.5,0,0,0,1,0V102a.5.5,0,0,0-1,0Z" transform="translate(-38 -14)"/><path class="cls-4" d="M91.3,75.61l.43,2.87c.1.64,1.06.37,1-.26l-.44-2.88c-.09-.63-1.06-.36-1,.27Z" transform="translate(-38 -14)"/><path class="cls-4" d="M92.43,81.85c.39,1.63.8,3.26,1.26,4.87a.5.5,0,0,0,1-.27Q94,84,93.4,81.59c-.15-.63-1.12-.37-1,.26Z" transform="translate(-38 -14)"/><path class="cls-4" d="M93.86,88.86c.16,2.28,1.22,4.44,1,6.75-.07.64.93.64,1,0,.25-2.33-.81-4.45-1-6.75,0-.64-1-.64-1,0Z" transform="translate(-38 -14)"/><path class="cls-4" d="M95.44,98.49l.28,6.14c0,.64,1,.65,1,0l-.28-6.14c0-.64-1-.65-1,0Z" transform="translate(-38 -14)"/><path class="cls-4" d="M95.46,107.31v2.78a.5.5,0,0,0,1,0v-2.78a.5.5,0,0,0-1,0Z" transform="translate(-38 -14)"/><path class="cls-4" d="M81.71,109.72a1.23,1.23,0,0,1,.08.54c-.09.62.87.9,1,.26a2.23,2.23,0,0,0-.07-1.06c-.21-.61-1.18-.35-1,.26Z" transform="translate(-38 -14)"/><path class="cls-4" d="M68.35,110.89a41.93,41.93,0,0,0,5.69.61.5.5,0,0,0,0-1,39.55,39.55,0,0,1-5.42-.58c-.63-.11-.9.85-.27,1Z" transform="translate(-38 -14)"/><path class="cls-4" d="M76.82,111.57a8.84,8.84,0,0,0,3.61-.39c.61-.2.35-1.17-.27-1a8,8,0,0,1-3.34.36c-.64-.07-.63.93,0,1Z" transform="translate(-38 -14)"/><path class="cls-4" d="M97.09,111.23a4.47,4.47,0,0,0,3.47.81c.63-.1.36-1.07-.27-1a3.47,3.47,0,0,1-2.69-.71c-.52-.39-1,.48-.51.87Z" transform="translate(-38 -14)"/><path class="cls-5" d="M102.81,112.28c1.65.09,4.1.69,5.25-.86.39-.52-.48-1-.86-.51s-1.3.52-2,.5-1.62-.08-2.43-.13c-.65,0-.65,1,0,1Z" transform="translate(-38 -14)"/><path class="cls-6" d="M133,113.14c-4.61,2.16-9.15,1.74-13.67,0-.6-16.46-2.79-31.76-7.72-45.06-3.85,13.42-4.86,29-5.17,45.06a34.17,34.17,0,0,1-17,0c-1-27.24-1.42-52.58,0-71.48a103.15,103.15,0,0,0,43.52,0C133.72,68.75,134,93.92,133,113.14Z" transform="translate(-38 -14)"/><path class="cls-5" d="M89.77,43.41a15.73,15.73,0,0,0,3.78,1.27c.63.12.89-.84.26-1a14.29,14.29,0,0,1-3.54-1.17c-.57-.27-1.08.59-.5.87Z" transform="translate(-38 -14)"/><path class="cls-5" d="M96.36,45.23c2.08.17,4.16.3,6.25.37.64,0,.64-1,0-1-2.09-.07-4.17-.2-6.25-.37-.64,0-.63,1,0,1Z" transform="translate(-38 -14)"/><path class="cls-5" d="M105.68,46.07c1.62-.1,3.24-.14,4.86-.1a.5.5,0,0,0,0-1c-1.62,0-3.24,0-4.86.1-.63,0-.64,1,0,1Z" transform="translate(-38 -14)"/><path class="cls-5" d="M114.22,45.76a18.18,18.18,0,0,0,3.9-.16c.64-.09.37-1.06-.26-1a17.74,17.74,0,0,1-3.64.12c-.65,0-.64,1,0,1Z" transform="translate(-38 -14)"/><path class="cls-5" d="M122,45.45l6-.9c.64-.1.37-1.06-.26-1l-6,.91c-.64.1-.37,1.06.26,1Z" transform="translate(-38 -14)"/><path class="cls-5" d="M130,44.18a9,9,0,0,0,2.74-.73c.59-.26.08-1.12-.5-.86a7.65,7.65,0,0,1-2.24.59c-.64.07-.65,1.07,0,1Z" transform="translate(-38 -14)"/><path class="cls-5" d="M89.92,44.08a10.39,10.39,0,0,1,0,2.84c-.09.63.87.91,1,.27a11.17,11.17,0,0,0,0-3.11c-.08-.63-1.09-.64-1,0Z" transform="translate(-38 -14)"/><path class="cls-5" d="M89.52,50.23l-.12,3.08c0,.64,1,.64,1,0l.12-3.08c0-.64-1-.64-1,0Z" transform="translate(-38 -14)"/><path class="cls-5" d="M89.32,57.67a17.22,17.22,0,0,0,.08,2.78c.06.63,1.06.64,1,0a17.22,17.22,0,0,1-.08-2.78c0-.64-1-.64-1,0Z" transform="translate(-38 -14)"/><path class="cls-5" d="M89.22,64a9.67,9.67,0,0,1,.09,1.94c0,.65,1,.64,1,0a10.26,10.26,0,0,0-.13-2.21c-.1-.63-1.06-.37-1,.27Z" transform="translate(-38 -14)"/><path class="cls-5" d="M89.14,69a3.84,3.84,0,0,1,.18,1.26c0,.64,1,.64,1,0a4.59,4.59,0,0,0-.22-1.52c-.19-.62-1.16-.36-1,.26Z" transform="translate(-38 -14)"/><path class="cls-5" d="M89,73.24v2.09a.5.5,0,0,0,1,0V73.24a.5.5,0,0,0-1,0Z" transform="translate(-38 -14)"/><path class="cls-5" d="M89,78.2a44.34,44.34,0,0,0,.16,5.16c.06.64,1.06.65,1,0A44.34,44.34,0,0,1,90,78.2c0-.64-1-.64-1,0Z" transform="translate(-38 -14)"/><path class="cls-5" d="M89.12,86v3.37a.5.5,0,0,0,1,0V86a.5.5,0,0,0-1,0Z" transform="translate(-38 -14)"/><path class="cls-5" d="M89.31,92.68a27.26,27.26,0,0,0-.09,3.38c0,.64,1,.64,1,0a27.26,27.26,0,0,1,.09-3.38c.07-.64-.93-.63-1,0Z" transform="translate(-38 -14)"/><path class="cls-5" d="M89.18,98.54,89.4,101c0,.63,1,.64,1,0l-.22-2.48c-.05-.64-1.05-.64-1,0Z" transform="translate(-38 -14)"/><path class="cls-5" d="M89.91,104.69v2.08a.5.5,0,0,0,1,0v-2.08a.5.5,0,0,0-1,0Z" transform="translate(-38 -14)"/><path class="cls-5" d="M89.81,109.88l.23,1.68c.09.64,1,.37,1-.26l-.23-1.69c-.09-.63-1-.36-1,.27Z" transform="translate(-38 -14)"/><path class="cls-5" d="M131.65,45.17a26,26,0,0,1-.15,4.67c-.07.64.93.63,1,0a26,26,0,0,0,.15-4.67c0-.64-1-.64-1,0Z" transform="translate(-38 -14)"/><path class="cls-5" d="M131.47,52.61V55a.5.5,0,0,0,1,0V52.61a.5.5,0,0,0-1,0Z" transform="translate(-38 -14)"/><path class="cls-5" d="M131.57,57.08a32,32,0,0,0,.11,3.66c.06.64,1.06.65,1,0a32,32,0,0,1-.11-3.66.5.5,0,0,0-1,0Z" transform="translate(-38 -14)"/><path class="cls-5" d="M131.74,63.05a19.15,19.15,0,0,1,.42,3.85.5.5,0,0,0,1,0,20.4,20.4,0,0,0-.46-4.12c-.13-.63-1.09-.36-1,.27Z" transform="translate(-38 -14)"/><path class="cls-5" d="M132.15,70.17c0,1.45,0,2.91,0,4.37,0,.64,1,.64,1,0,.06-1.46.07-2.92,0-4.37a.5.5,0,0,0-1,0Z" transform="translate(-38 -14)"/><path class="cls-5" d="M132.06,76.72v2.87a.5.5,0,0,0,1,0V76.72a.5.5,0,0,0-1,0Z" transform="translate(-38 -14)"/><path class="cls-5" d="M132.21,82.37l.17,3.47c0,.64,1,.64,1,0l-.17-3.47c0-.64-1-.65-1,0Z" transform="translate(-38 -14)"/><path class="cls-5" d="M132.26,87.79a17.2,17.2,0,0,0-.28,4.3c0,.64,1,.64,1,0a16.1,16.1,0,0,1,.25-4c.12-.63-.85-.9-1-.26Z" transform="translate(-38 -14)"/><path class="cls-5" d="M132.17,94a30.14,30.14,0,0,0,.08,3.68c.05.63,1.05.64,1,0a30.14,30.14,0,0,1-.08-3.68c0-.64-1-.64-1,0Z" transform="translate(-38 -14)"/><path class="cls-5" d="M132,100l-.12,2.77c0,.64,1,.64,1,0L133,100c0-.65-1-.65-1,0Z" transform="translate(-38 -14)"/><path class="cls-5" d="M132.06,105.08v3.67a.5.5,0,0,0,1,0v-3.67a.5.5,0,0,0-1,0Z" transform="translate(-38 -14)"/><path class="cls-5" d="M131.58,110a21.13,21.13,0,0,1,.08,3.08c0,.64,1,.64,1,0a21.13,21.13,0,0,0-.08-3.08c-.06-.63-1.06-.64-1,0Z" transform="translate(-38 -14)"/><path class="cls-5" d="M108.78,48.55l-.23,3c0,.64,1,.64,1,0l.23-3c0-.64-1-.64-1,0Z" transform="translate(-38 -14)"/><path class="cls-5" d="M108.85,54.5l.11,1.38c.06.64,1.06.65,1,0l-.11-1.38c-.06-.64-1.06-.65-1,0Z" transform="translate(-38 -14)"/><path class="cls-5" d="M109.18,61.17l.3,1.39c.13.63,1.1.37,1-.26l-.3-1.39c-.14-.63-1.1-.36-1,.26Z" transform="translate(-38 -14)"/><path class="cls-5" d="M115,48.05v2.38a.5.5,0,0,0,1,0V48.05a.5.5,0,0,0-1,0Z" transform="translate(-38 -14)"/><path class="cls-5" d="M114.89,53a27.65,27.65,0,0,1,0,3.28c0,.64,1,.63,1,0a27.65,27.65,0,0,0,0-3.28c0-.64-1-.65-1,0Z" transform="translate(-38 -14)"/><path class="cls-5" d="M114.53,58.83a14.16,14.16,0,0,1-.7,2.78c-.22.6.75.86,1,.26a14.7,14.7,0,0,0,.7-2.78c.09-.63-.87-.9-1-.26Z" transform="translate(-38 -14)"/><path class="cls-5" d="M111.31,64.78a6.54,6.54,0,0,0,2.25,0c.63-.1.36-1.06-.27-1a5.23,5.23,0,0,1-1.72,0c-.63-.11-.89.85-.26,1Z" transform="translate(-38 -14)"/><path class="cls-5" d="M122,50.8a22.66,22.66,0,0,0,3.75,4.54,7.55,7.55,0,0,0,4.74,1.78c.64.07.64-.93,0-1a7,7,0,0,1-4.83-2.26,23.55,23.55,0,0,1-2.8-3.57c-.34-.54-1.21,0-.86.51Z" transform="translate(-38 -14)"/><path class="cls-5" d="M100.55,49.56a16.09,16.09,0,0,1-5.83,5.7.5.5,0,0,0,.51.86,17.09,17.09,0,0,0,6.18-6.06.5.5,0,0,0-.86-.5Z" transform="translate(-38 -14)"/><path class="cls-5" d="M111.79,65.1c-.2,3.08-2.49,5.5-2.87,8.56-.08.63.92.63,1,0,.38-3.06,2.67-5.44,2.87-8.56,0-.64-1-.64-1,0Z" transform="translate(-38 -14)"/><path class="cls-5" d="M111.34,68.72,114,74.47c.27.58,1.13.08.86-.5l-2.68-5.76c-.27-.58-1.13-.07-.86.51Z" transform="translate(-38 -14)"/><path class="cls-5" d="M108.69,76.68l-1.06,5.37c-.12.63.84.9,1,.26L109.65,77c.13-.63-.84-.9-1-.27Z" transform="translate(-38 -14)"/><path class="cls-5" d="M106.56,86.24c0,1.52,0,3,0,4.56,0,.65,1,.64,1,0,.08-1.52.1-3,0-4.56,0-.64-1-.65-1,0Z" transform="translate(-38 -14)"/><path class="cls-5" d="M106.29,94.73a24.9,24.9,0,0,0-.41,4.8.5.5,0,0,0,1,0,23.68,23.68,0,0,1,.37-4.53c.12-.63-.85-.9-1-.27Z" transform="translate(-38 -14)"/><path class="cls-5" d="M105.28,104.29V110a.5.5,0,0,0,1,0v-5.75a.5.5,0,0,0-1,0Z" transform="translate(-38 -14)"/><path class="cls-5" d="M114.61,77.94l.43,2.87c.1.64,1.06.37,1-.26l-.44-2.87c-.09-.64-1.06-.37-1,.26Z" transform="translate(-38 -14)"/><path class="cls-5" d="M115.74,84.18c.39,1.63.8,3.26,1.26,4.87a.5.5,0,0,0,1-.26q-.67-2.43-1.25-4.87c-.15-.63-1.12-.36-1,.26Z" transform="translate(-38 -14)"/><path class="cls-5" d="M117.17,91.19c.16,2.28,1.22,4.45,1,6.75-.07.64.93.64,1,0,.25-2.33-.81-4.45-1-6.75,0-.64-1-.64-1,0Z" transform="translate(-38 -14)"/><path class="cls-5" d="M118.75,100.82,119,107c0,.65,1,.65,1,0l-.28-6.14c0-.64-1-.65-1,0Z" transform="translate(-38 -14)"/><path class="cls-5" d="M118.77,109.65v2.77a.5.5,0,0,0,1,0v-2.77a.5.5,0,0,0-1,0Z" transform="translate(-38 -14)"/><path class="cls-5" d="M105,112.05a1.23,1.23,0,0,1,.08.54c-.09.63.87.9,1,.26a2.24,2.24,0,0,0-.07-1.06c-.21-.61-1.18-.35-1,.26Z" transform="translate(-38 -14)"/><path class="cls-5" d="M91.66,113.22a41.93,41.93,0,0,0,5.69.61c.65,0,.64-1,0-1a39.39,39.39,0,0,1-5.42-.58c-.63-.11-.9.85-.27,1Z" transform="translate(-38 -14)"/><path class="cls-5" d="M100.13,113.9a8.84,8.84,0,0,0,3.61-.39c.61-.2.35-1.17-.27-1a8,8,0,0,1-3.34.36c-.64-.07-.63.93,0,1Z" transform="translate(-38 -14)"/><path class="cls-5" d="M120.4,113.56a4.46,4.46,0,0,0,3.46.81c.64-.1.37-1.07-.26-1a3.44,3.44,0,0,1-2.69-.72c-.52-.38-1,.48-.51.87Z" transform="translate(-38 -14)"/><path class="cls-5" d="M126.11,114.61c1.65.09,4.11.69,5.26-.86.39-.52-.48-1-.86-.51s-1.31.53-2,.5c-.81,0-1.62-.08-2.44-.13-.64,0-.64,1,0,1Z" transform="translate(-38 -14)"/><path class="cls-2" d="M78.06,65.44a15.66,15.66,0,0,0,15.71.69c1.14-.59.13-2.31-1-1.73a13.59,13.59,0,0,1-13.69-.69c-1.09-.69-2.1,1-1,1.73Z" transform="translate(-38 -14)"/><path class="cls-2" d="M92.7,63.15c.52.26,1,.53,1.52.83.27.16,1,.49,1.14.79s-.62,1.27-.74,1.5c-.28.49-.58,1-.89,1.42-.72,1.07,1,2.07,1.72,1a18.84,18.84,0,0,0,1.47-2.54,3.28,3.28,0,0,0,.53-1.88c-.27-1.39-2.63-2.3-3.74-2.86s-2.16,1.15-1,1.73Z" transform="translate(-38 -14)"/><path class="cls-2" d="M80,60.74a6.13,6.13,0,0,0-2.64.42,6.42,6.42,0,0,0-2.14,1.11c-.54.54-.44,1.11-.32,1.81.18,1,.38,1.92.57,2.88.25,1.26,2.17.73,1.93-.53l-.32-1.62a5.93,5.93,0,0,1-.23-1.21c.14-.27,1.1-.53,1.38-.63A4.11,4.11,0,0,1,80,62.74c1.29.11,1.28-1.89,0-2Z" transform="translate(-38 -14)"/></svg>