<svg id="图层_1" data-name="图层 1" xmlns="http://www.w3.org/2000/svg" viewBox="0 0 123 172"><defs><style>.cls-1{fill:#a8c9ea;}.cls-2{fill:#fff;}.cls-3{fill:#4b5270;}.cls-4{fill:#434a66;}.cls-5{fill:#363f58;}.cls-6{fill:#d3d3d3;}.cls-7{fill:#e9e8e8;}.cls-8{fill:#8d8d8d;}</style></defs><title>未标题-1</title><path class="cls-1" d="M161,75.5A61.67,61.67,0,0,0,99.5,14h0A61.67,61.67,0,0,0,38,75.5h0A61,61,0,0,0,48,109h0l50.5,77L150,110.51q.42-.6.84-1.23L151,109h0a61,61,0,0,0,10-33.5Z" transform="translate(-38 -14)"/><rect class="cls-2" x="6" y="6" width="110" height="110" rx="55"/><rect class="cls-3" x="31.44" y="29.45" width="63" height="41.25"/><polygon class="cls-4" points="104.19 84.95 21.69 84.95 31.44 69.95 94.44 69.95 104.19 84.95"/><rect class="cls-5" x="21.69" y="84.95" width="82.5" height="1.5"/><polygon class="cls-6" points="92.19 39.27 33.69 66.16 33.69 66.2 64.95 66.2 92.19 53.68 92.19 39.27"/><polygon class="cls-6" points="92.19 31.88 61.97 31.88 33.69 44.88 33.69 60.76 92.19 33.87 92.19 31.88"/><polygon class="cls-6" points="92.19 35.86 33.69 62.76 33.69 64.17 92.19 37.27 92.19 35.86"/><polygon class="cls-6" points="33.69 31.88 33.69 42.4 56.58 31.88 33.69 31.88"/><polygon class="cls-6" points="92.19 55.67 69.3 66.2 92.19 66.2 92.19 55.67"/><polygon class="cls-7" points="56.58 31.88 33.69 42.4 33.69 44.88 61.97 31.88 56.58 31.88"/><polygon class="cls-7" points="92.19 33.87 33.69 60.76 33.69 62.76 92.19 35.86 92.19 33.87"/><polygon class="cls-7" points="92.19 37.27 33.69 64.17 33.69 66.16 92.19 39.27 92.19 37.27"/><polygon class="cls-7" points="92.19 53.68 64.95 66.2 69.3 66.2 92.19 55.67 92.19 53.68"/><polygon class="cls-7" points="94.44 72.2 31.44 72.2 32.19 70.7 93.69 70.7 94.44 72.2"/><polygon class="cls-7" points="97.66 78.2 27.91 78.2 30.91 72.95 94.66 72.95 97.66 78.2"/><polygon class="cls-8" points="74.19 83.45 50.19 83.45 51.69 78.95 72.69 78.95 74.19 83.45"/></svg>