<svg id="图层_1" data-name="图层 1" xmlns="http://www.w3.org/2000/svg" viewBox="0 0 123 172"><defs><style>.cls-1{fill:#a8c9ea;}.cls-2{fill:#fff;}.cls-3{fill:#a0c4e8;}.cls-4{fill:#e9a2bd;}.cls-5{fill:#bb9ec9;}.cls-6{fill:#c4a7ce;}.cls-7{fill:#f2a1bd;}.cls-8{fill:#ead6b2;}.cls-9{fill:#fce9c5;}</style></defs><title>未标题-1</title><path class="cls-1" d="M161,75.5A61.67,61.67,0,0,0,99.5,14h0A61.67,61.67,0,0,0,38,75.5h0A61,61,0,0,0,48,109h0l50.5,77L150,110.51q.42-.6.84-1.23L151,109h0a61,61,0,0,0,10-33.5Z" transform="translate(-38 -14)"/><rect class="cls-2" x="6" y="6" width="110" height="110" rx="55"/><path class="cls-3" d="M126.52,77.05,93.11,62.64V50s0-9-6.3-9-6.3,9.91-6.3,9.91,0,1.8.63,1.8,1.26,0,1.26-.9.21-7.21,4.41-7.21C90,44.62,90.59,50,90.59,50V62.64S62.86,77.05,60.34,78s-4.42.9-5.05,4.5,2.52,3.6,2.52,3.6h68.71s3.78,0,3.78-3.6A5.29,5.29,0,0,0,126.52,77.05Zm-66.18,4.5L91.85,66.24l33.41,15.31Z" transform="translate(-38 -14)"/><path class="cls-1" d="M127.52,77.05,94.11,62.64V50s0-9-6.3-9-6.3,9.91-6.3,9.91,0,1.8.63,1.8,1.26,0,1.26-.9.21-7.21,4.41-7.21C91,44.62,91.59,50,91.59,50V62.64S63.86,77.05,61.34,78s-4.42.9-5.05,4.5,2.52,3.6,2.52,3.6h68.71s3.78,0,3.78-3.6A5.29,5.29,0,0,0,127.52,77.05Zm-66.18,4.5L92.85,66.24l33.41,15.31Z" transform="translate(-38 -14)"/><path class="cls-4" d="M138.38,79.75,105,65.34V52.73s0-9-6.3-9-6.31,9.91-6.31,9.91,0,1.8.63,1.8,1.26,0,1.26-.9.21-7.21,4.42-7.21c3.15,0,3.78,5.41,3.78,5.41V65.34S74.71,79.75,72.19,80.65s-4.41.9-5,4.5,2.52,3.61,2.52,3.61h68.71s3.78,0,3.78-3.61A5.29,5.29,0,0,0,138.38,79.75Zm-66.19,4.5,31.52-15.31,33.41,15.31Z" transform="translate(-38 -14)"/><path class="cls-5" d="M132.05,78,98.65,63.54V50.93s0-9-6.31-9S86,51.83,86,51.83s0,1.8.63,1.8,1.26,0,1.26-.9.21-7.21,4.41-7.21c3.15,0,3.78,5.41,3.78,5.41V63.54S68.39,78,65.87,78.85s-4.41.9-5,4.5S63.35,87,63.35,87h68.7s3.78,0,3.78-3.61A5.29,5.29,0,0,0,132.05,78Zm-66.18,4.5L97.38,67.14l33.41,15.31Z" transform="translate(-38 -14)"/><path class="cls-6" d="M133.05,78,99.65,63.54V50.93s0-9-6.31-9S87,51.83,87,51.83s0,1.8.63,1.8,1.26,0,1.26-.9.21-7.21,4.41-7.21c3.15,0,3.78,5.41,3.78,5.41V63.54S69.39,78,66.87,78.85s-4.41.9-5,4.5S64.35,87,64.35,87h68.7s3.78,0,3.78-3.61A5.29,5.29,0,0,0,133.05,78Zm-66.18,4.5L98.38,67.14l33.41,15.31Z" transform="translate(-38 -14)"/><path class="cls-7" d="M139.38,79.75,106,65.34V52.73s0-9-6.3-9-6.31,9.91-6.31,9.91,0,1.8.63,1.8,1.26,0,1.26-.9.21-7.21,4.42-7.21c3.15,0,3.78,5.41,3.78,5.41V65.34S75.71,79.75,73.19,80.65s-4.41.9-5,4.5,2.52,3.61,2.52,3.61h68.71s3.78,0,3.78-3.61A5.29,5.29,0,0,0,139.38,79.75Zm-66.19,4.5,31.52-15.31,33.41,15.31Z" transform="translate(-38 -14)"/><path class="cls-8" d="M143.12,81.55,109.71,67.14V54.53s0-9-6.3-9-6.31,9.91-6.31,9.91,0,1.8.64,1.8,1.26,0,1.26-.9.21-7.21,4.41-7.21c3.15,0,3.78,5.41,3.78,5.41V67.14S79.46,81.55,76.93,82.45s-4.41.9-5,4.51,2.52,3.6,2.52,3.6h68.71s3.78,0,3.78-3.6A5.3,5.3,0,0,0,143.12,81.55Zm-66.19,4.5,31.52-15.31,33.41,15.31Z" transform="translate(-38 -14)"/><path class="cls-9" d="M144.12,81.55,110.71,67.14V54.53s0-9-6.3-9-6.31,9.91-6.31,9.91,0,1.8.64,1.8,1.26,0,1.26-.9.21-7.21,4.41-7.21c3.15,0,3.78,5.41,3.78,5.41V67.14S80.46,81.55,77.93,82.45s-4.41.9-5,4.51,2.52,3.6,2.52,3.6h68.71s3.78,0,3.78-3.6A5.3,5.3,0,0,0,144.12,81.55Zm-66.19,4.5,31.52-15.31,33.41,15.31Z" transform="translate(-38 -14)"/></svg>