<svg id="图层_1" data-name="图层 1" xmlns="http://www.w3.org/2000/svg" viewBox="0 0 123 172"><defs><style>.cls-1{fill:#a8c9ea;}.cls-2{fill:#fff;}.cls-3{fill:#c9c9c9;}.cls-4{fill:#e3e2e2;}.cls-5{fill:#bbbbba;}.cls-6{fill:#e5e5e5;}.cls-7{fill:#949394;}.cls-8{fill:#f4f4f5;opacity:0.92;}.cls-9{fill:#fdfefe;}.cls-10{fill:#e7f5fc;}.cls-11{fill:#f8fcfe;}</style></defs><title>照镜子</title><path class="cls-1" d="M161,75.5A61.67,61.67,0,0,0,99.5,14h0A61.67,61.67,0,0,0,38,75.5h0A61,61,0,0,0,48,109h0l50.5,77L150,110.51q.42-.6.84-1.23L151,109h0a61,61,0,0,0,10-33.5Z" transform="translate(-38 -14)"/><rect class="cls-2" x="6" y="6" width="110" height="110" rx="55"/><rect class="cls-3" x="34.19" y="17.77" width="53.82" height="64.42" rx="24.53"/><rect class="cls-4" x="40.97" y="92.66" width="39.75" height="13.69" rx="6.84"/><rect class="cls-5" x="40.97" y="91.85" width="39.75" height="13.69" rx="6.84"/><rect class="cls-6" x="35.16" y="19.38" width="52.46" height="62.01" rx="23.9"/><rect class="cls-7" x="58.43" y="93.46" width="4.85" height="4.03" rx="1.98"/><path class="cls-7" d="M79.94,115.52c-2.9-3.23.48-9.66,6.79-9.67H111c5.41.85,9.69,4.83,6.78,9.67,0,0,0-2.38-3.87-4.84-4.79-3.05-20.1-2.49-26.18,0C84.73,111.9,79.61,115.39,79.94,115.52Z" transform="translate(-38 -14)"/><path class="cls-3" d="M100.3,109.88c0,1.14-2.91,1.12-2.91,0V95.38h2.91Z" transform="translate(-38 -14)"/><path class="cls-4" d="M97.39,96.19v13.69s.09.48,1,.8a1.64,1.64,0,0,0,1.94-.8C100.3,110.68,97.39,105.85,97.39,96.19Z" transform="translate(-38 -14)"/><path class="cls-8" d="M103.79,32.21s11.06,1.17,17.48,9.19c5.19,6.48,4.53,11,4.53,11s-2.23-7-6.11-11C115.07,36.63,103.79,32.21,103.79,32.21Z" transform="translate(-38 -14)"/><path class="cls-8" d="M94.8,95.92s-11.06-1.16-17.49-9.19c-5.19-6.48-4.52-11-4.52-11s2.23,7,6.1,11C83.52,91.5,94.8,95.92,94.8,95.92Z" transform="translate(-38 -14)"/><path class="cls-9" d="M117.75,39.82" transform="translate(-38 -14)"/><path class="cls-10" d="M113.31,37.72,75.17,49.19a17.41,17.41,0,0,0-1,5.93v4.6l47.52-14.29A23.17,23.17,0,0,0,113.31,37.72Z" transform="translate(-38 -14)"/><path class="cls-10" d="M124.54,67,76.39,81.47c.29.52.59,1,.93,1.52l47.22-14.2Z" transform="translate(-38 -14)"/><path class="cls-10" d="M124.54,55.12a17.43,17.43,0,0,0-.72-4.95l-49.69,15v7.72A17.4,17.4,0,0,0,75,78.33l49.52-14.89Z" transform="translate(-38 -14)"/><path class="cls-10" d="M123.21,48.45,74.13,63.22v1.11l49.46-14.88C123.47,49.12,123.35,48.78,123.21,48.45Z" transform="translate(-38 -14)"/><path class="cls-10" d="M90.21,92.34a29.52,29.52,0,0,0,9.12,1.43c9.45,0,17.72-4.37,22-10.8Z" transform="translate(-38 -14)"/><path class="cls-10" d="M124.54,72.84V71.47L79,85.17a24.31,24.31,0,0,0,6.44,5.11l38-11.44A17.55,17.55,0,0,0,124.54,72.84Z" transform="translate(-38 -14)"/><path class="cls-10" d="M99.33,34.18c-10.5,0-19.56,5.42-23.33,13l35.17-10.58A29.22,29.22,0,0,0,99.33,34.18Z" transform="translate(-38 -14)"/><path class="cls-10" d="M124.54,64.23,75.27,79.05c.11.31.24.62.38.93l48.89-14.71Z" transform="translate(-38 -14)"/><path class="cls-11" d="M111.17,36.65,76,47.23a20.91,20.91,0,0,0-.83,2l38.14-11.47C112.62,37.34,111.9,37,111.17,36.65Z" transform="translate(-38 -14)"/><path class="cls-11" d="M124.54,65.27,75.65,80c.22.5.47,1,.74,1.49L124.54,67Z" transform="translate(-38 -14)"/><path class="cls-11" d="M124.54,68.79,77.32,83A21.82,21.82,0,0,0,79,85.17l45.54-13.7Z" transform="translate(-38 -14)"/><path class="cls-11" d="M123.47,78.84l-38,11.44a27.9,27.9,0,0,0,4.77,2.06L121.37,83A18.9,18.9,0,0,0,123.47,78.84Z" transform="translate(-38 -14)"/><path class="cls-11" d="M123.59,49.45,74.13,64.33v.79l49.69-15C123.75,49.93,123.67,49.69,123.59,49.45Z" transform="translate(-38 -14)"/><path class="cls-11" d="M124.54,63.44,75,78.33c.08.24.16.48.25.72l49.27-14.82Z" transform="translate(-38 -14)"/><path class="cls-11" d="M121.65,45.43,74.13,59.72v3.5l49.08-14.77A18.37,18.37,0,0,0,121.65,45.43Z" transform="translate(-38 -14)"/></svg>