<svg id="图层_1" data-name="图层 1" xmlns="http://www.w3.org/2000/svg" xmlns:xlink="http://www.w3.org/1999/xlink" viewBox="0 0 123 172"><defs><style>.cls-1{fill:url(#radial-gradient);}.cls-2{fill:#89979e;}.cls-14,.cls-15,.cls-16,.cls-21,.cls-3,.cls-8{opacity:0.8;mix-blend-mode:multiply;}.cls-4{fill:url(#linear-gradient);}.cls-5{mix-blend-mode:screen;}.cls-6{fill:url(#linear-gradient-2);}.cls-7{fill:url(#linear-gradient-3);}.cls-8{fill:url(#linear-gradient-4);}.cls-9{fill:#040000;}.cls-10{fill:url(#radial-gradient-2);}.cls-11{fill:url(#linear-gradient-5);}.cls-12{fill:url(#linear-gradient-6);}.cls-13{fill:url(#linear-gradient-7);}.cls-14{fill:url(#linear-gradient-8);}.cls-15{fill:url(#linear-gradient-12);}.cls-16{fill:url(#linear-gradient-13);}.cls-17{fill:url(#radial-gradient-4);}.cls-18{fill:url(#linear-gradient-14);}.cls-19{fill:url(#linear-gradient-15);}.cls-20{fill:url(#linear-gradient-16);}.cls-21{fill:url(#linear-gradient-17);}.cls-22{fill:#a8c9ea;}.cls-23,.cls-27,.cls-28,.cls-29{fill:#fff;}.cls-24{fill:#373e3f;}.cls-25{fill:#f0f8fd;}.cls-26{opacity:0.46;}.cls-27{opacity:0.99;}.cls-28{opacity:0.98;}.cls-29{opacity:0.5;}</style><radialGradient id="radial-gradient" cx="31.94" cy="54.57" r="32.48" gradientUnits="userSpaceOnUse"><stop offset="0" stop-color="#e7ebee"/><stop offset="1" stop-color="#bec7cc"/></radialGradient><linearGradient id="linear-gradient" x1="31.09" y1="20.75" x2="47.67" y2="84.29" gradientUnits="userSpaceOnUse"><stop offset="0" stop-color="#fff"/><stop offset="1" stop-color="#b5c4cc"/></linearGradient><linearGradient id="linear-gradient-2" x1="23.54" y1="1.21" x2="34.98" y2="42.82" gradientUnits="userSpaceOnUse"><stop offset="0" stop-color="#fcf8d3"/><stop offset="1" stop-color="#040000"/></linearGradient><linearGradient id="linear-gradient-3" x1="18.16" y1="-4.36" x2="39.45" y2="57.37" gradientUnits="userSpaceOnUse"><stop offset="0" stop-color="#fff"/><stop offset="1" stop-color="#040000"/></linearGradient><linearGradient id="linear-gradient-4" x1="33" y1="46.91" x2="33" y2="18.8" xlink:href="#linear-gradient"/><radialGradient id="radial-gradient-2" cx="31.94" cy="54.57" r="32.48" xlink:href="#radial-gradient"/><linearGradient id="linear-gradient-5" x1="31.09" y1="20.75" x2="47.67" y2="84.28" xlink:href="#linear-gradient"/><linearGradient id="linear-gradient-6" x1="23.54" y1="1.21" x2="34.97" y2="42.82" xlink:href="#linear-gradient-2"/><linearGradient id="linear-gradient-7" x1="18.16" y1="-4.36" x2="39.45" y2="57.37" xlink:href="#linear-gradient-3"/><linearGradient id="linear-gradient-8" x1="37.4" y1="46.91" x2="37.4" y2="18.81" xlink:href="#linear-gradient"/><linearGradient id="linear-gradient-12" x1="23.5" y1="46.91" x2="23.5" y2="18.8" xlink:href="#linear-gradient"/><linearGradient id="linear-gradient-13" x1="42.5" y1="46.91" x2="42.5" y2="18.8" xlink:href="#linear-gradient"/><radialGradient id="radial-gradient-4" cx="31.94" cy="54.57" r="32.48" xlink:href="#radial-gradient"/><linearGradient id="linear-gradient-14" x1="31.09" y1="20.75" x2="47.67" y2="84.28" xlink:href="#linear-gradient"/><linearGradient id="linear-gradient-15" x1="23.54" y1="1.21" x2="34.98" y2="42.82" xlink:href="#linear-gradient-2"/><linearGradient id="linear-gradient-16" x1="18.16" y1="-4.36" x2="39.45" y2="57.37" xlink:href="#linear-gradient-3"/><linearGradient id="linear-gradient-17" x1="32.47" y1="48.63" x2="32.47" y2="16.81" xlink:href="#linear-gradient"/><symbol id="音乐" data-name="音乐" viewBox="0 0 64 64"><circle class="cls-17" cx="32" cy="32" r="31.5"/><path class="cls-2" d="M32,1A31,31,0,1,1,1,32,31,31,0,0,1,32,1m0-1A32,32,0,1,0,64,32,32,32,0,0,0,32,0Z"/><g class="cls-3"><path class="cls-18" d="M53.4,9.6A31,31,0,0,1,9.6,53.4,31,31,0,1,0,53.4,9.6Z"/></g><g class="cls-5"><path class="cls-19" d="M24.35,37.7C35.23,28.34,49.3,19.61,61.43,26.2A30,30,0,1,0,4.23,43.33C9,44.53,16.39,44.56,24.35,37.7Z"/></g><g class="cls-5"><path class="cls-20" d="M4,34A30,30,0,0,1,54.18,11.82,30,30,0,1,0,11.82,54.18,29.9,29.9,0,0,1,4,34Z"/></g><path class="cls-21" d="M49,41.44V17h0l-.26-.08L24.81,20H25V39.43a8.27,8.27,0,0,0-3.19-.32c-3.48.34-6.14,2.82-5.87,5.54S19.21,49.3,22.7,49s6.32-2.81,6.06-5.54c0,0,.24-.13.24-.13V26.59l16-2.38V37.58a8.37,8.37,0,0,0-3.17-.32c-3.49.34-6.13,2.82-5.87,5.54s3.28,4.65,6.76,4.31S49,44.3,48.77,41.58C48.77,41.53,49,41.44,49,41.44Z"/><path class="cls-9" d="M48,40.44V16h0l-.26-.09L23.81,19H24V38.42a8.27,8.27,0,0,0-3.19-.31c-3.48.34-6.14,2.82-5.87,5.54S18.21,48.3,21.7,48s6.32-2.82,6.06-5.54c0,0,.24-.13.24-.13V25.59l16-2.38V36.58a8.37,8.37,0,0,0-3.17-.32c-3.49.34-6.13,2.82-5.87,5.54s3.28,4.65,6.76,4.31S48,43.3,47.77,40.58C47.77,40.53,48,40.44,48,40.44Z"/></symbol><symbol id="暂停" data-name="暂停" viewBox="0 0 64 64"><path class="cls-1" d="M32,63.5A31.5,31.5,0,1,1,63.5,32,31.53,31.53,0,0,1,32,63.5Z"/><path class="cls-2" d="M32,1A31,31,0,1,1,1,32,31,31,0,0,1,32,1m0-1A32,32,0,1,0,64,32,32,32,0,0,0,32,0Z"/><g class="cls-3"><path class="cls-4" d="M53.4,9.6A31,31,0,0,1,9.6,53.4,31,31,0,1,0,53.4,9.6Z"/></g><g class="cls-5"><path class="cls-6" d="M24.35,37.7C35.23,28.34,49.3,19.61,61.43,26.2A30,30,0,1,0,4.23,43.33C9,44.53,16.39,44.56,24.35,37.7Z"/></g><g class="cls-5"><path class="cls-7" d="M4,34A30,30,0,0,1,54.18,11.82,30,30,0,1,0,11.82,54.18,29.9,29.9,0,0,1,4,34Z"/></g><g class="cls-3"><rect class="cls-15" x="19" y="19" width="9" height="28"/><rect class="cls-16" x="38" y="19" width="9" height="28"/></g><rect class="cls-9" x="18" y="18" width="9" height="28"/><rect class="cls-9" x="37" y="18" width="9" height="28"/></symbol><symbol id="播放" data-name="播放" viewBox="0 0 64 64"><path class="cls-10" d="M32,63.5A31.5,31.5,0,1,1,63.5,32,31.53,31.53,0,0,1,32,63.5Z"/><path class="cls-2" d="M32,1A31,31,0,1,1,1,32,31,31,0,0,1,32,1m0-1A32,32,0,1,0,64,32,32,32,0,0,0,32,0Z"/><g class="cls-3"><path class="cls-11" d="M53.4,9.6A31,31,0,0,1,9.6,53.4,31,31,0,1,0,53.4,9.6Z"/></g><g class="cls-5"><path class="cls-12" d="M24.35,37.7C35.23,28.34,49.3,19.61,61.43,26.2A30,30,0,0,0,2,32,29.69,29.69,0,0,0,4.23,43.33C9,44.53,16.39,44.56,24.35,37.7Z"/></g><g class="cls-5"><path class="cls-13" d="M4,34A30,30,0,0,1,54.18,11.82,30,30,0,1,0,11.82,54.18,29.9,29.9,0,0,1,4,34Z"/></g><polygon class="cls-14" points="25 47 49.8 33 25 19 25 47"/><polygon class="cls-9" points="24 46 48.8 32 24 18 24 46"/></symbol><symbol id="停止" data-name="停止" viewBox="0 0 64 64"><path class="cls-1" d="M32,63.5A31.5,31.5,0,1,1,63.5,32,31.53,31.53,0,0,1,32,63.5Z"/><path class="cls-2" d="M32,1A31,31,0,1,1,1,32,31,31,0,0,1,32,1m0-1A32,32,0,1,0,64,32,32,32,0,0,0,32,0Z"/><g class="cls-3"><path class="cls-4" d="M53.4,9.6A31,31,0,0,1,9.6,53.4,31,31,0,1,0,53.4,9.6Z"/></g><g class="cls-5"><path class="cls-6" d="M24.35,37.7C35.23,28.34,49.3,19.61,61.43,26.2A30,30,0,1,0,4.23,43.33C9,44.53,16.39,44.56,24.35,37.7Z"/></g><g class="cls-5"><path class="cls-7" d="M4,34A30,30,0,0,1,54.18,11.82,30,30,0,1,0,11.82,54.18,29.9,29.9,0,0,1,4,34Z"/></g><rect class="cls-8" x="21" y="21" width="24" height="24"/><rect class="cls-9" x="20" y="20" width="24" height="24"/></symbol></defs><title>玩手机</title><path class="cls-22" d="M161,75.5A61.67,61.67,0,0,0,99.5,14h0A61.67,61.67,0,0,0,38,75.5h0A61,61,0,0,0,48,109h0l50.5,77L150,110.51q.42-.6.84-1.23L151,109h0a61,61,0,0,0,10-33.5Z" transform="translate(-38 -14)"/><rect class="cls-23" x="6" y="6" width="110" height="110" rx="55"/><rect class="cls-24" x="38.61" y="18.58" width="45.7" height="84" rx="8.25"/><path class="cls-25" d="M85.39,34.33a7.93,7.93,0,0,0-7.91,7.9v33.1l32.55-41Z" transform="translate(-38 -14)"/><path class="cls-25" d="M121,42.63,79.83,94.51l-2.35-1.87v14.74a7.93,7.93,0,0,0,7.91,7.9H90l31-39.06Z" transform="translate(-38 -14)"/><path class="cls-25" d="M113.1,34.33h-.3L77.48,78.83v6.53l39.63-49.93A7.83,7.83,0,0,0,113.1,34.33Z" transform="translate(-38 -14)"/><path class="cls-25" d="M92.79,115.28H113.1a7.93,7.93,0,0,0,7.91-7.9V79.73Z" transform="translate(-38 -14)"/><g class="cls-26"><use width="64" height="64" transform="translate(52.65 40.07) scale(0.27)" xlink:href="#音乐"/><use width="64" height="64" transform="translate(58.15 72.31) scale(0.09 0.09)" xlink:href="#暂停"/><use width="64" height="64" transform="translate(47.4 72.31) scale(0.09 0.09)" xlink:href="#播放"/><use width="64" height="64" transform="translate(68.89 72.31) scale(0.09 0.09)" xlink:href="#停止"/></g><polygon class="cls-27" points="72.03 20.32 39.48 61.33 39.48 64.83 74.8 20.32 72.03 20.32"/><polygon class="cls-28" points="83.01 62.23 52.01 101.28 54.79 101.28 83.01 65.72 83.01 62.23"/><path class="cls-27" d="M121,42.63v-.4a7.93,7.93,0,0,0-3.9-6.8L77.48,85.36V97.87Z" transform="translate(-38 -14)"/><path class="cls-24" d="M103.56,36.94H94.5a1.35,1.35,0,0,1-1.35-1.35V34.8c0-.74-.91-1.24,1.35-1.35h9.06c2.36.11,1.34.61,1.34,1.35v.79A1.35,1.35,0,0,1,103.56,36.94Z" transform="translate(-38 -14)"/><rect class="cls-29" x="57" y="91.84" width="8.13" height="8.13" rx="4.07"/></svg>