<svg id="图层_1" data-name="图层 1" xmlns="http://www.w3.org/2000/svg" viewBox="0 0 123 172"><defs><style>.cls-1{fill:#a8c9ea;}.cls-2{fill:#fff;}.cls-3{fill:#aacfdf;}.cls-4{fill:#81b5c7;}.cls-5{fill:#6ab9cb;}.cls-6{fill:#9ad6f0;}</style></defs><title>洗澡</title><path class="cls-1" d="M161,75.5A61.67,61.67,0,0,0,99.5,14h0A61.67,61.67,0,0,0,38,75.5h0A61,61,0,0,0,48,109h0l50.5,77L150,110.51q.42-.6.84-1.23L151,109h0a61,61,0,0,0,10-33.5Z" transform="translate(-38 -14)"/><rect class="cls-2" x="6" y="6" width="110" height="110" rx="55"/><path class="cls-3" d="M97.11,77.7a88.63,88.63,0,0,0,35.33-13.9s-9.93-12.58-24.62-6.63S97.11,77.7,97.11,77.7Z" transform="translate(-38 -14)"/><path class="cls-4" d="M97.11,77.7c11-1.12,26.66-6.91,35.38-14,0,0-7.17-1.2-19.61,3.84S97.11,77.7,97.11,77.7Z" transform="translate(-38 -14)"/><rect class="cls-5" x="100.74" y="74.65" width="1.26" height="2.26" rx="0.63" transform="translate(-59.9 33.11) rotate(-23.69)"/><rect class="cls-5" x="104.53" y="74.32" width="1.06" height="1.91" rx="0.53" transform="translate(-59.39 34.55) rotate(-23.69)"/><rect class="cls-5" x="102.73" y="73.44" width="1.46" height="2.62" rx="0.73" transform="translate(-59.31 33.86) rotate(-23.69)"/><rect class="cls-5" x="105.42" y="71.9" width="1.46" height="2.62" rx="0.73" transform="translate(-58.47 34.82) rotate(-23.69)"/><rect class="cls-5" x="107.2" y="73.57" width="0.99" height="1.79" rx="0.5" transform="translate(-58.84 35.54) rotate(-23.69)"/><rect class="cls-5" x="107.73" y="71.13" width="1.46" height="2.62" rx="0.73" transform="translate(-57.97 35.68) rotate(-23.69)"/><rect class="cls-5" x="110.04" y="69.98" width="1.46" height="2.62" rx="0.73" transform="translate(-57.31 36.51) rotate(-23.69)"/><rect class="cls-5" x="110.63" y="72.82" width="0.91" height="1.63" rx="0.45" transform="translate(-58.23 36.83) rotate(-23.69)"/><rect class="cls-5" x="112.34" y="68.44" width="1.46" height="2.62" rx="0.73" transform="translate(-56.5 37.31) rotate(-23.69)"/><rect class="cls-5" x="112.8" y="71.19" width="1.05" height="1.88" rx="0.52" transform="translate(-57.43 37.61) rotate(-23.69)"/><rect class="cls-5" x="115.04" y="67.67" width="1.46" height="2.62" rx="0.73" transform="translate(-55.96 38.32) rotate(-23.69)"/><rect class="cls-5" x="115.27" y="70.11" width="0.99" height="1.79" rx="0.5" transform="translate(-56.77 38.49) rotate(-23.69)"/><rect class="cls-5" x="117.34" y="66.52" width="1.46" height="2.62" rx="0.73" transform="translate(-55.3 39.15) rotate(-23.69)"/><rect class="cls-5" x="117.94" y="69.75" width="0.91" height="1.63" rx="0.45" transform="translate(-56.37 39.51) rotate(-23.69)"/><rect class="cls-5" x="120.03" y="65.36" width="1.46" height="2.62" rx="0.73" transform="translate(-54.61 40.14) rotate(-23.69)"/><rect class="cls-5" x="120.29" y="68.55" width="1.06" height="1.91" rx="0.53" transform="translate(-55.74 40.4) rotate(-23.69)"/><rect class="cls-5" x="123.11" y="64.59" width="1.46" height="2.62" rx="0.73" transform="translate(-54.04 41.31) rotate(-23.69)"/><rect class="cls-5" x="122.55" y="67.44" width="0.91" height="1.63" rx="0.45" transform="translate(-55.06 41.17) rotate(-23.69)"/><rect class="cls-5" x="125.42" y="64.21" width="1.46" height="2.62" rx="0.73" transform="translate(-53.7 42.2) rotate(-23.69)"/><rect class="cls-5" x="125.19" y="66.71" width="0.75" height="1.35" rx="0.38" transform="translate(-54.49 42.13) rotate(-23.69)"/><rect class="cls-5" x="127.72" y="63.83" width="1.46" height="2.62" rx="0.73" transform="translate(-53.35 43.1) rotate(-23.69)"/><path class="cls-6" d="M138.64,85a2,2,0,0,1,.45,1.24,2.33,2.33,0,0,0,.44,1.82,1.15,1.15,0,0,0,1.79-.68,2.16,2.16,0,0,0-1.12-2A4.39,4.39,0,0,0,138.64,85Z" transform="translate(-38 -14)"/><rect class="cls-3" x="30.66" y="30.09" width="2.31" height="61.53"/><path class="cls-6" d="M128.64,81.94a2,2,0,0,1,.45,1.25,2.32,2.32,0,0,0,.45,1.81c.33.46,1.67.23,1.78-.68a2.17,2.17,0,0,0-1.12-2A4.39,4.39,0,0,0,128.64,81.94Z" transform="translate(-38 -14)"/><path class="cls-6" d="M121,77.71A2,2,0,0,1,121.4,79a2.32,2.32,0,0,0,.44,1.81,1.15,1.15,0,0,0,1.79-.68,2.17,2.17,0,0,0-1.12-2A4.39,4.39,0,0,0,121,77.71Z" transform="translate(-38 -14)"/><path class="cls-6" d="M102.66,93.09a2,2,0,0,0-.45,1.25,2.31,2.31,0,0,1-.45,1.81c-.33.46-1.67.23-1.78-.68a2.18,2.18,0,0,1,1.11-2A4.47,4.47,0,0,1,102.66,93.09Z" transform="translate(-38 -14)"/><path class="cls-6" d="M121,91.07a2,2,0,0,0,.4,1.27,2.28,2.28,0,0,1,.75,1.71,1.14,1.14,0,0,1-1.83.54,2.16,2.16,0,0,1-.35-2.3A4.34,4.34,0,0,1,121,91.07Z" transform="translate(-38 -14)"/><path class="cls-6" d="M125.94,105a2,2,0,0,0,.2,1.31,2.34,2.34,0,0,1,.47,1.81,1.14,1.14,0,0,1-1.89.25,2.14,2.14,0,0,1,0-2.32A4.34,4.34,0,0,1,125.94,105Z" transform="translate(-38 -14)"/><path class="cls-6" d="M104.66,79.26a2,2,0,0,0,0,1.32,2.29,2.29,0,0,1,.25,1.85,1.15,1.15,0,0,1-1.91,0,2.18,2.18,0,0,1,.3-2.31A4.35,4.35,0,0,1,104.66,79.26Z" transform="translate(-38 -14)"/><path class="cls-6" d="M112,95.72a3,3,0,0,0,.35,2,3.47,3.47,0,0,1,.78,2.71c-.09.84-2,1.55-2.84.45a3.28,3.28,0,0,1-.08-3.51A6.66,6.66,0,0,1,112,95.72Z" transform="translate(-38 -14)"/><path class="cls-6" d="M113.4,80.86a2.75,2.75,0,0,1,.1,1.83,3.23,3.23,0,0,0-.12,2.6,1.59,1.59,0,0,0,2.64-.2,3,3,0,0,0-.67-3.16A6.06,6.06,0,0,0,113.4,80.86Z" transform="translate(-38 -14)"/><path class="cls-6" d="M131.33,92.71a2.88,2.88,0,0,1,.64,1.78,3.3,3.3,0,0,0,.64,2.59,1.64,1.64,0,0,0,2.55-1,3.11,3.11,0,0,0-1.59-2.92A6.33,6.33,0,0,0,131.33,92.71Z" transform="translate(-38 -14)"/><path class="cls-6" d="M126.24,71s1.05.66,1.2,1.45a3.29,3.29,0,0,0,1.48,2.21c.66.45,2.34-.51,2.05-1.77a3.07,3.07,0,0,0-2.48-2.19A6.12,6.12,0,0,0,126.24,71Z" transform="translate(-38 -14)"/><rect class="cls-4" x="107.38" y="57.82" width="4.23" height="2.06" rx="0.9" transform="translate(-52.6 37.65) rotate(-24.93)"/><rect class="cls-3" x="30.66" y="30.09" width="31.15" height="2.31"/><rect class="cls-4" x="32.19" y="31.62" width="0.77" height="59.99"/><rect class="cls-4" x="32.92" y="31.62" width="28.92" height="0.77"/><rect class="cls-3" x="95.34" y="50.82" width="17.89" height="2.31" transform="translate(43.42 -76.28) rotate(52.19)"/><rect class="cls-4" x="94.59" y="52.44" width="17.86" height="0.77" transform="translate(44.42 -75.46) rotate(52.5)"/><path class="cls-4" d="M107.07,57.46s-8,4.19-9.57,9.83a22.24,22.24,0,0,0-.39,10.25l4.23-3.85S99,72.16,99.8,66.77A11.88,11.88,0,0,1,107.07,57.46Z" transform="translate(-38 -14)"/></svg>