<svg id="图层_1" data-name="图层 1" xmlns="http://www.w3.org/2000/svg" viewBox="0 0 123 172"><defs><style>.cls-1{fill:#a8c9ea;}.cls-2{fill:#fff;}.cls-3{fill:#60452f;}</style></defs><title>睡觉</title><path class="cls-1" d="M161,75.5A61.67,61.67,0,0,0,99.5,14h0A61.67,61.67,0,0,0,38,75.5h0A61,61,0,0,0,48,109h0l50.5,77L150,110.51q.42-.6.84-1.23L151,109h0a61,61,0,0,0,10-33.5Z" transform="translate(-38 -14)"/><rect class="cls-2" x="6" y="6" width="110" height="110" rx="55"/><path class="cls-3" d="M65.13,83.89,75.44,84c3.18,0,7.69-.71,10.69.33l-1.47-1.93c0,1.22-9.29,7-11.3,8.59C69.12,94.27,65,97.67,61,101.33a2,2,0,0,0,0,2.83c2.64,2.25,7.52,1.16,10.72,1.12,6-.08,12-.3,17.94-.61,2.56-.13,2.58-4.13,0-4-4.65.24-9.29.43-14,.54-2,0-4,.07-6,.09-1,0-5.38.47-5.9,0v2.83C69,99.4,74.49,95.09,80,90.82c2.59-2,8.47-4.79,8.62-8.44a2,2,0,0,0-1.47-1.93c-3-1-6.76-.43-9.87-.46l-12.19-.1c-2.58,0-2.58,4,0,4Z" transform="translate(-38 -14)"/><path class="cls-3" d="M66.26,93.11A135.78,135.78,0,0,0,83.41,95.5c2.57.19,2.55-3.81,0-4a128.12,128.12,0,0,1-16.09-2.24c-2.51-.52-3.59,3.34-1.06,3.85Z" transform="translate(-38 -14)"/><path class="cls-3" d="M97.39,66.07l6.93.06c2.11,0,5-.49,7,.2l-1.47-1.93c.47-.94.19-.86-.85.26-.94.73-1.88,1.46-2.83,2.18l-3.65,2.81c-2.86,2.23-5.66,4.53-8.33,7a2,2,0,0,0,0,2.83c1.92,1.65,5,1,7.37,1,4.11-.05,8.22-.2,12.32-.41,2.56-.13,2.58-4.14,0-4-3.14.16-6.28.29-9.42.36l-4.34.06H97.93c-1.6-.18-1.91-.11-.93.2v2.83c3.55-3.28,7.35-6.24,11.18-9.18,1.94-1.5,5.55-3.16,5.66-5.9a2,2,0,0,0-1.47-1.92c-2-.71-4.53-.32-6.67-.33l-8.31-.08c-2.57,0-2.57,4,0,4Z" transform="translate(-38 -14)"/><path class="cls-3" d="M98,72.24a93.75,93.75,0,0,0,11.68,1.63c2.57.19,2.56-3.81,0-4A84.27,84.27,0,0,1,99,68.38c-2.51-.51-3.59,3.34-1.06,3.86Z" transform="translate(-38 -14)"/><path class="cls-3" d="M122,47.11l5.86,0c1.75,0,4.17-.42,5.83.16l-1.47-1.93c.52-1,.31-1-.63,0-.77.61-1.55,1.21-2.33,1.81-1.05.8-2.1,1.6-3.15,2.42-2.42,1.89-4.79,3.83-7,5.92a2,2,0,0,0,0,2.83c1.72,1.46,4.36.92,6.46.89,3.47,0,6.94-.17,10.41-.35,2.57-.13,2.58-4.13,0-4s-5.3.25-8,.31l-3.68,0h-1.84c-1.43-.16-1.62-.07-.56.26v2.83c3-2.76,6.17-5.25,9.39-7.72,1.75-1.35,4.84-2.78,4.94-5.25a2,2,0,0,0-1.47-1.93c-1.75-.61-3.88-.27-5.72-.29l-7-.06c-2.57,0-2.58,4,0,4Z" transform="translate(-38 -14)"/><path class="cls-3" d="M122.39,52.31a77.63,77.63,0,0,0,10,1.39c2.56.19,2.55-3.81,0-4a70.45,70.45,0,0,1-8.91-1.24c-2.51-.52-3.58,3.34-1.06,3.85Z" transform="translate(-38 -14)"/></svg>