<svg id="图层_1" data-name="图层 1" xmlns="http://www.w3.org/2000/svg" viewBox="0 0 123 172"><defs><style>.cls-1{fill:#a8c9ea;}.cls-2{fill:#fff;}.cls-3{fill:#dd4f3d;}.cls-4{fill:#eb5f46;}.cls-5{fill:#f7d26b;}.cls-6{fill:#f5a842;}.cls-7{fill:#c33b39;}.cls-8{fill:#d08952;}.cls-9{fill:#f9d09e;}.cls-10{fill:#f9d59a;}.cls-11{fill:#f5a869;}.cls-12{fill:#e99960;}.cls-13{fill:#e05958;}.cls-14{fill:#f7c57a;}.cls-15{fill:#dd9b44;}.cls-16{fill:#481e0e;}.cls-17{fill:#431d0c;}.cls-18{fill:#502613;}.cls-19{fill:#552813;}</style></defs><title>吃零食</title><path class="cls-1" d="M161,75.5A61.67,61.67,0,0,0,99.5,14h0A61.67,61.67,0,0,0,38,75.5h0A61,61,0,0,0,48,109h0l50.5,77L150,110.51q.42-.6.84-1.23L151,109h0a61,61,0,0,0,10-33.5Z" transform="translate(-38 -14)"/><rect class="cls-2" x="6" y="6" width="110" height="110" rx="55"/><polygon class="cls-3" points="56.9 79.63 56.39 80.44 80.72 95.82 81.24 95.01 71.78 85.64 56.9 79.63"/><path class="cls-4" d="M119.24,109c-6.56-6-14.83-11.07-24.34-15.38a157.56,157.56,0,0,1,20.45-32.38,91.72,91.72,0,0,1,24.34,15.38A198.73,198.73,0,0,1,119.24,109Z" transform="translate(-38 -14)"/><polygon class="cls-3" points="78.38 45.63 77.2 47.49 101.69 62.63 103.23 60.2 78.38 45.63"/><path class="cls-5" d="M106.9,72.9s-3.36,4.93-4.24,6.51,25.48,16.85,25.48,16.85,3.36-4.93,3.76-5.56S106.9,72.9,106.9,72.9Z" transform="translate(-38 -14)"/><rect class="cls-6" x="108.73" y="75.63" width="17.64" height="18.19" rx="8.82" transform="translate(25.42 -63.69) rotate(32.28)"/><path class="cls-7" d="M113.43,63.72a207.23,207.23,0,0,0-19.2,30.2l24,15.8S109.59,95,110.77,85" transform="translate(-38 -14)"/><rect class="cls-8" x="31.65" y="28.85" width="37.34" height="58.11"/><polygon class="cls-9" points="73.65 36.12 36.3 36.12 31.52 28.85 68.86 28.85 73.65 36.12"/><polygon class="cls-10" points="73.36 94.23 36.01 94.23 31.23 86.96 68.57 86.96 73.36 94.23"/><rect class="cls-11" x="36.23" y="36.12" width="37.34" height="58.11"/><polygon class="cls-12" points="31.23 86.96 36.46 94.37 37.04 36.12 31.37 28.85 31.23 86.96"/><rect class="cls-13" x="37.04" y="57.91" width="36.46" height="13.07"/><polygon class="cls-13" points="37.04 57.91 31.23 53.55 31.23 63.93 37.04 70.98 37.04 57.91"/><polygon class="cls-14" points="31.23 55.97 31.23 61.46 37.04 66.19 73.41 66.19 73.63 62.1 36.93 62 31.23 55.97"/><rect class="cls-15" x="84.58" y="60.07" width="1.37" height="42.62" rx="0.69" transform="translate(-49.6 0.23) rotate(-8.93)"/><rect class="cls-16" x="82.72" y="53.28" width="2.75" height="41.24" rx="1.37" transform="translate(-48.46 -0.04) rotate(-8.93)"/><rect class="cls-15" x="88.66" y="59.89" width="1.37" height="42.62" rx="0.69" transform="translate(-36.93 -15.16) rotate(0.75)"/><rect class="cls-17" x="88.07" y="53.02" width="2.75" height="41.24" rx="1.37" transform="translate(-37.03 -15.16) rotate(0.75)"/><rect class="cls-15" x="92.62" y="61.25" width="1.37" height="42.62" rx="0.69" transform="translate(-17.83 -32.3) rotate(12.55)"/><rect class="cls-18" x="93.57" y="54.55" width="2.75" height="41.24" rx="1.37" transform="translate(-19.39 -32.84) rotate(12.55)"/><rect class="cls-15" x="96.88" y="62.67" width="1.37" height="42.62" rx="0.69" transform="translate(5.93 -47.05) rotate(24.66)"/><rect class="cls-19" x="99.35" y="56.48" width="2.75" height="41.24" rx="1.37" transform="translate(3.35 -48.99) rotate(24.66)"/></svg>