<svg id="图层_1" data-name="图层 1" xmlns="http://www.w3.org/2000/svg" viewBox="0 0 123 172"><defs><style>.cls-1{fill:#a8c9ea;}.cls-2{fill:#fff;}.cls-3{fill:#fbfcfe;}.cls-4{fill:#dfe1e9;}.cls-5{fill:#bec4da;}.cls-6{fill:#f2f5fb;}.cls-7{fill:#d9e0e4;}.cls-12,.cls-20,.cls-21,.cls-22,.cls-8,.cls-9{fill:none;stroke-miterlimit:10;}.cls-8,.cls-9{stroke:#d1d7ed;}.cls-12,.cls-21,.cls-8{stroke-width:0.5px;}.cls-9{stroke-width:0.75px;}.cls-10{fill:#d1d7ed;}.cls-11{fill:#dce1f1;}.cls-12{stroke:#d0d2dc;}.cls-13{fill:#99b0db;}.cls-14{fill:#356eb6;}.cls-15{fill:#7187c3;}.cls-16{fill:#5a6bb1;}.cls-17{fill:#9190c5;}.cls-18{fill:#f9f8ee;}.cls-19{fill:#edebde;}.cls-20,.cls-21,.cls-22{stroke:#edebde;}.cls-20{stroke-width:0.25px;}.cls-22{stroke-width:0.1px;}.cls-23{fill:#d6d6d6;}</style></defs><title>刷牙</title><path class="cls-1" d="M161,75.5A61.67,61.67,0,0,0,99.5,14h0A61.67,61.67,0,0,0,38,75.5h0A61,61,0,0,0,48,109h0l50.5,77L150,110.51q.42-.6.84-1.23L151,109h0a61,61,0,0,0,10-33.5Z" transform="translate(-38 -14)"/><rect class="cls-2" x="6" y="6" width="110" height="110" rx="55"/><path class="cls-3" d="M86.58,47.48l-5.1,4.74s-3.11,2.89-.68,5.62c3.33,3.76,41.18,51.9,41.18,51.9l15.86-15.09L93.68,50S89.22,45.44,86.58,47.48Z" transform="translate(-38 -14)"/><path class="cls-4" d="M81.85,51s-4,2.86-2.31,5.24,40.73,51.31,40.73,51.31l5.83-6s-8.67-2.17-24-21.55S81.85,51,81.85,51Z" transform="translate(-38 -14)"/><path class="cls-5" d="M80.08,54.51h0a.3.3,0,0,1,0-.43l7.17-7a.29.29,0,0,1,.42,0h0a.3.3,0,0,1,0,.43l-7.17,7A.29.29,0,0,1,80.08,54.51Z" transform="translate(-38 -14)"/><polygon class="cls-6" points="41.72 40.61 34.18 30.25 40.16 24.68 49.97 32.63 41.72 40.61"/><path class="cls-7" d="M73.14,43.44l-1,.8,7.6,10.4L82,52.36c-3.59-2.64-6.77-5.37-8.5-9.14" transform="translate(-38 -14)"/><line class="cls-8" x1="39.72" y1="25.09" x2="49.33" y2="33.19"/><line class="cls-9" x1="39.27" y1="25.72" x2="48.21" y2="34.44"/><path class="cls-5" d="M136.42,93.18l-.4-.45c-.64,0-16.07,13.91-15.72,14.94,1,1.06.83.82.83.82l15.29-15.31" transform="translate(-38 -14)"/><line class="cls-8" x1="38.6" y1="26.34" x2="47.1" y2="35.47"/><line class="cls-9" x1="37.71" y1="27.16" x2="45.9" y2="36.39"/><line class="cls-9" x1="36.16" y1="28.61" x2="43.56" y2="38.77"/><line class="cls-8" x1="35.28" y1="29.43" x2="42.23" y2="40.01"/><path class="cls-10" d="M72.13,44.28h0a.15.15,0,0,0,.21,0l5.86-5.45a.15.15,0,0,0,0-.21h0a.14.14,0,0,0-.2,0l-5.86,5.45A.15.15,0,0,0,72.13,44.28Z" transform="translate(-38 -14)"/><path class="cls-11" d="M137.85,94.56l-15.76,15.08-1.47-1.71c.36-1.83,14.76-15.24,15.81-15C136.85,93,137.85,94.56,137.85,94.56Z" transform="translate(-38 -14)"/><line class="cls-12" x1="98" y1="79.16" x2="99.41" y2="80.76"/><line class="cls-12" x1="97.55" y1="79.57" x2="98.56" y2="80.71"/><line class="cls-12" x1="97.11" y1="79.99" x2="98.53" y2="81.58"/><line class="cls-12" x1="96.45" y1="80.6" x2="97.66" y2="81.97"/><line class="cls-12" x1="95.78" y1="81.22" x2="97.2" y2="82.82"/><line class="cls-12" x1="95.34" y1="81.64" x2="96.35" y2="82.77"/><line class="cls-12" x1="95.02" y1="81.73" x2="96.63" y2="83.55"/><line class="cls-12" x1="94.25" y1="82.23" x2="95.66" y2="83.83"/><line class="cls-12" x1="93.58" y1="82.85" x2="94.8" y2="84.22"/><line class="cls-12" x1="93.81" y1="82.65" x2="94.82" y2="83.78"/><line class="cls-12" x1="93.14" y1="83.26" x2="94.15" y2="84.4"/><line class="cls-12" x1="92.7" y1="83.68" x2="94.11" y2="85.27"/><line class="cls-12" x1="91.81" y1="84.5" x2="93.23" y2="86.1"/><line class="cls-12" x1="92.25" y1="84.09" x2="93.26" y2="85.23"/><line class="cls-12" x1="91.37" y1="84.91" x2="91.77" y2="85.37"/><line class="cls-12" x1="90.93" y1="85.33" x2="92.34" y2="86.92"/><line class="cls-12" x1="90.48" y1="85.74" x2="91.69" y2="87.11"/><line class="cls-12" x1="90.26" y1="85.95" x2="91.07" y2="86.86"/><line class="cls-12" x1="89.82" y1="86.36" x2="91.23" y2="87.95"/><line class="cls-12" x1="89.37" y1="86.77" x2="90.59" y2="88.14"/><line class="cls-12" x1="88.93" y1="87.18" x2="89.54" y2="87.87"/><line class="cls-12" x1="88.04" y1="88.01" x2="89.46" y2="89.6"/><line class="cls-12" x1="87.6" y1="88.42" x2="88.21" y2="89.1"/><line class="cls-12" x1="87.16" y1="88.83" x2="88.57" y2="90.43"/><line class="cls-12" x1="86.71" y1="89.25" x2="87.52" y2="90.16"/><line class="cls-12" x1="86.27" y1="89.66" x2="87.89" y2="91.48"/><line class="cls-12" x1="85.71" y1="90.39" x2="86.92" y2="91.76"/><line class="cls-12" x1="85.36" y1="90.92" x2="86.37" y2="92.06"/><line class="cls-12" x1="84.82" y1="91.22" x2="86.03" y2="92.58"/><line class="cls-12" x1="84.48" y1="91.74" x2="84.88" y2="92.2"/><line class="cls-12" x1="84.03" y1="92.15" x2="85.45" y2="93.75"/><line class="cls-12" x1="83.37" y1="92.77" x2="84.78" y2="94.37"/><line class="cls-12" x1="83.03" y1="93.3" x2="84.44" y2="94.89"/><path class="cls-13" d="M103.46,59.62l20.86,21.55A88.31,88.31,0,0,0,109.94,94.3L91.4,71.07A28.1,28.1,0,0,1,103.46,59.62Z" transform="translate(-38 -14)"/><path class="cls-14" d="M100.91,61l20.73,22.16a87.08,87.08,0,0,0-8.84,8L93.46,67.91A24.41,24.41,0,0,1,100.91,61Z" transform="translate(-38 -14)"/><rect class="cls-15" x="21.52" y="64" width="79.9" height="4.88" rx="2.28"/><rect class="cls-16" x="22.94" y="64.16" width="77.78" height="1.63" rx="0.76"/><path class="cls-17" d="M23.24,64H38.12a.8.8,0,0,1,.8.8V65a.8.8,0,0,1-.8.8H23a.8.8,0,0,1-.8-.8v0a1,1,0,0,1,1-1Z"/><rect class="cls-18" x="22.32" y="56.67" width="15.82" height="8.95" rx="1.6"/><path class="cls-19" d="M23.8,56.72H36.65a.69.69,0,0,1,.69.69v.11a.83.83,0,0,1-.83.83H23.93a.83.83,0,0,1-.83-.83v-.11a.69.69,0,0,1,.69-.69Z"/><line class="cls-20" x1="24.69" y1="58.3" x2="24.69" y2="61.56"/><line class="cls-21" x1="27.46" y1="57.9" x2="27.46" y2="62.78"/><line class="cls-20" x1="29.83" y1="57.9" x2="29.83" y2="61.15"/><line class="cls-20" x1="23.9" y1="58.3" x2="23.9" y2="62.37"/><line class="cls-21" x1="32.2" y1="57.9" x2="32.2" y2="62.78"/><line class="cls-21" x1="36.16" y1="58.3" x2="36.16" y2="61.96"/><line class="cls-20" x1="33" y1="57.9" x2="33" y2="61.15"/><line class="cls-20" x1="35.37" y1="57.9" x2="35.37" y2="63.59"/><path class="cls-22" d="M61.51,71.35a.78.78,0,0,0-.79.81c0,.82,0,3.4,0,3.4" transform="translate(-38 -14)"/><path class="cls-22" d="M74.79,71.26a.78.78,0,0,1,.79.81c0,.81,0,3.39,0,3.39" transform="translate(-38 -14)"/><path class="cls-23" d="M60.32,78a1.58,1.58,0,0,0,1.58,1.63H74.56s1.58,0,1.56-1.37c0-1.08,0-.26,0-.26s0,.81-1.58.81H61.9s-1.58,0-1.58-.81" transform="translate(-38 -14)"/></svg>