<svg id="图层_1" data-name="图层 1" xmlns="http://www.w3.org/2000/svg" viewBox="0 0 123 172"><defs><style>.cls-1{fill:#a8c9ea;}.cls-2{fill:#fff;}.cls-3{fill:#daeff6;}.cls-4{fill:#eff8fd;}.cls-5{fill:#addce6;}.cls-6{fill:#84b9d6;}.cls-7{fill:#7accef;}.cls-8{fill:#bae0e8;}.cls-9{fill:#b8e0ea;}.cls-10{fill:#f8fcfe;}.cls-11{fill:#fbfdfe;}</style></defs><title>厕所</title><path class="cls-1" d="M161,75.5A61.67,61.67,0,0,0,99.5,14h0A61.67,61.67,0,0,0,38,75.5h0A61,61,0,0,0,48,109h0l50.5,77L150,110.51q.42-.6.84-1.23L151,109h0a61,61,0,0,0,10-33.5Z" transform="translate(-38 -14)"/><rect class="cls-2" x="6" y="6" width="110" height="110" rx="55"/><path class="cls-3" d="M114.51,117.07c-11.16,5.09-21.94,5.28-32.3,0a2,2,0,0,1-1.74-2.13V100.75a2,2,0,0,1,1.74-2.14h32.3a2,2,0,0,1,1.73,2.14v14.19A2,2,0,0,1,114.51,117.07Z" transform="translate(-38 -14)"/><path class="cls-4" d="M77.79,74s-8.46,38.05,20.61,37.45,19.56-38,19.56-38C105.22,63.41,91.75,65.14,77.79,74Z" transform="translate(-38 -14)"/><rect class="cls-3" x="39.8" y="33.22" width="40.58" height="26.81"/><rect class="cls-5" x="39.8" y="31.55" width="40.58" height="3.91"/><path class="cls-4" d="M39.77,29.31H81.64A1.41,1.41,0,0,1,83,30.72V32a2.37,2.37,0,0,1-2.37,2.37H39.77A2.37,2.37,0,0,1,37.39,32v-.28A2.37,2.37,0,0,1,39.77,29.31Z"/><rect class="cls-6" x="46.21" y="58.92" width="26.17" height="26.81" rx="12.65"/><rect class="cls-7" x="48.47" y="69.26" width="21.78" height="16.8" rx="7.98"/><path class="cls-8" d="M80.87,56.72H78.05a1.16,1.16,0,0,1-1.2-1.11v-1h-1a.61.61,0,0,1-.63-.58v-.64a.61.61,0,0,1,.63-.58h5a1.16,1.16,0,0,1,1.2,1.11v1.69A1.16,1.16,0,0,1,80.87,56.72Z" transform="translate(-38 -14)"/><path class="cls-2" d="M80.92,56.39H78.23a1.09,1.09,0,0,1-1.14-1v-.92h-1a.57.57,0,0,1-.6-.53v-.59a.57.57,0,0,1,.6-.53h4.79a1.09,1.09,0,0,1,1.15,1v1.56A1.1,1.1,0,0,1,80.92,56.39Z" transform="translate(-38 -14)"/><path class="cls-8" d="M75.42,45.58s-.29,2.79,2.38,2.79l40.52,0s2.73,0,2.73-2.2a5.26,5.26,0,0,1-2.67,1.11H77.8A4.47,4.47,0,0,1,75.42,45.58Z" transform="translate(-38 -14)"/><path class="cls-9" d="M77.8,79.06c8-10.49,32.3-9.6,40.05-.56,0,0-7.56-10-20.41-9.49C83.11,69.63,77.8,79.06,77.8,79.06Z" transform="translate(-38 -14)"/><rect class="cls-8" x="41.93" y="18.14" width="36.31" height="44.69" rx="18.16"/><rect class="cls-10" x="42.47" y="16.46" width="34.71" height="44.69" rx="17.35"/><rect class="cls-4" x="44.6" y="19.81" width="30.44" height="39.1" rx="15.22"/><path class="cls-8" d="M97.55,72.36h0c-10.27,0-18.68,6-18.68,13.42v3.88c0,7.38,8.41,13.42,18.68,13.42h0c10.28,0,18.69-6,18.69-13.42V85.78C116.24,78.4,107.83,72.36,97.55,72.36Zm11,16.9c0,4.49-5.12,8.17-11.38,8.17h0c-6.27,0-11.39-3.68-11.39-8.17V86.89c0-4.5,5.12-8.17,11.39-8.17h0c6.26,0,11.38,3.67,11.38,8.17Z" transform="translate(-38 -14)"/><path class="cls-11" d="M97.82,70.68h0c-10.13,0-18.42,6-18.42,13.42V88c0,7.38,8.29,13.42,18.42,13.42h0c10.13,0,18.42-6,18.42-13.42V84.1C116.24,76.72,108,70.68,97.82,70.68Zm10.81,16.9c0,4.5-5,8.18-11.22,8.18h0c-6.17,0-11.22-3.68-11.22-8.18V85.22c0-4.5,5-8.18,11.22-8.18h0c6.17,0,11.22,3.68,11.22,8.18Z" transform="translate(-38 -14)"/><path class="cls-8" d="M116.07,101.41c-12.07,9.72-24.07,10-35.6,1.67a22.94,22.94,0,0,0,18,8.94C110.37,112,116.07,101.41,116.07,101.41Z" transform="translate(-38 -14)"/><path class="cls-8" d="M87.94,72.92c5.75-3.34,14.38-2.63,19.76,0A13.93,13.93,0,0,0,97.55,69C90.84,69,87.94,72.92,87.94,72.92Z" transform="translate(-38 -14)"/><path class="cls-9" d="M83.67,43.87c5.64-10.49,22.83-9.61,28.3-.56,0,0-5.34-10.05-14.42-9.5C87.43,34.44,83.67,43.87,83.67,43.87Z" transform="translate(-38 -14)"/></svg>