<svg id="图层_1" data-name="图层 1" xmlns="http://www.w3.org/2000/svg" viewBox="0 0 123 172"><defs><style>.cls-1{fill:#a8c9ea;}.cls-2{fill:#fff;}.cls-3{fill:#e49697;}.cls-4{fill:#ecd9d9;}.cls-5{fill:#f2a2a3;}.cls-6{fill:#fce7e8;}.cls-7{fill:none;stroke:#c17373;stroke-miterlimit:10;opacity:0.49;}</style></defs><title>洗脸</title><path class="cls-1" d="M161,75.5A61.67,61.67,0,0,0,99.5,14h0A61.67,61.67,0,0,0,38,75.5h0A61,61,0,0,0,48,109h0l50.5,77L150,110.51q.42-.6.84-1.23L151,109h0a61,61,0,0,0,10-33.5Z" transform="translate(-38 -14)"/><rect class="cls-2" x="6" y="6" width="110" height="110" rx="55"/><path class="cls-3" d="M71.74,111.26c15.71,2.19,24.25,2.78,38.92.44-3.56-25.53,8.18-51.4,12.52-74.78a118.7,118.7,0,0,1-44.92-.22c-2.49-.65-3.48,3.17-3.83,5.91C71.53,64.73,69.76,89.67,71.74,111.26Z" transform="translate(-38 -14)"/><path class="cls-4" d="M109.28,100,71,99.77a92.8,92.8,0,0,1-.13-11.37l38.46.24Z" transform="translate(-38 -14)"/><path class="cls-5" d="M127.43,110.52c-1.12,1.1-47.19,7.22-48.31,3.06,2.46-5.9,3-54.46-1.34-77.84,15,2.73,42.27-2,45.62,0S128.55,109.43,127.43,110.52Z" transform="translate(-38 -14)"/><path class="cls-6" d="M80.91,90s-.22,10.29-.31,11.76c-.1,1.65,47.14-2.38,47.14-2.38l-.27-12.21s-2,3.06-23.61,3.06S80.91,90,80.91,90Z" transform="translate(-38 -14)"/><path class="cls-7" d="M87.4,44.35c6.4,15.95,16.4,29,28.62,40.24" transform="translate(-38 -14)"/></svg>