<svg id="图层_1" data-name="图层 1" xmlns="http://www.w3.org/2000/svg" viewBox="0 0 123 172"><defs><style>.cls-1{fill:#a8c9ea;}.cls-2{fill:#fff;}.cls-3{fill:#fffcf5;}.cls-4{fill:#e8e1c9;}.cls-5{fill:#fffaf0;}.cls-6{fill:#87aac5;}.cls-7{fill:#f4efe3;}.cls-8{fill:#fffbee;}.cls-9{fill:#518bc0;}.cls-10{fill:#a9cded;}.cls-11{fill:#7ba1d5;}.cls-12{fill:#d2e8f6;}.cls-13{fill:#95bcda;}</style></defs><title>洗衣服</title><path class="cls-1" d="M161,75.5A61.67,61.67,0,0,0,99.5,14h0A61.67,61.67,0,0,0,38,75.5h0A61,61,0,0,0,48,109h0l50.5,77L150,110.51q.42-.6.84-1.23L151,109h0a61,61,0,0,0,10-33.5Z" transform="translate(-38 -14)"/><rect class="cls-2" x="6" y="6" width="110" height="110" rx="55"/><rect class="cls-3" x="47.1" y="42.29" width="47.65" height="53.52"/><polygon class="cls-4" points="47.1 95.81 37.57 82.61 37.57 35.69 39.39 35.66 47.1 42.29 47.1 95.81"/><polygon class="cls-5" points="94.76 42.29 47.21 42.29 39.04 35.69 84.36 35.69 94.76 42.29"/><ellipse class="cls-6" cx="66.16" cy="38.26" rx="17.59" ry="4.03"/><rect class="cls-4" x="37.57" y="23.23" width="44.72" height="12.46"/><polygon class="cls-7" points="84.49 24.7 39.04 24.7 37.57 23.23 81.56 23.23 84.49 24.7"/><rect class="cls-8" x="39.04" y="24.7" width="45.45" height="11"/><rect class="cls-9" x="40.52" y="26.9" width="8.24" height="2.19" rx="1.1"/><rect class="cls-4" x="77.04" y="48.45" width="45.45" height="0.73" transform="translate(-38.5 -12.97) rotate(-0.59)"/><ellipse class="cls-10" cx="66.16" cy="37.96" rx="16.86" ry="3.6"/><path class="cls-11" d="M119.66,51.53c0,1.82-6.92,3.29-15.45,3.29s-15.44-1.47-15.44-3.29,6.18-4,14.71-4S119.66,49.7,119.66,51.53Z" transform="translate(-38 -14)"/><rect class="cls-9" x="50.04" y="26.9" width="2.2" height="2.2" rx="1.1"/><path class="cls-12" d="M58.71,55.56s8.8-3.67,11.73,2.93S65.31,73.11,65.31,79c0,4.4,2.25,11.64,8.8,12.46,5.86.73,6.6.73,6.6.73,1.07,1.5.94,2.74-.74,3.67,0,0-6,.67-10.26-2.2a17.94,17.94,0,0,1-6.6-16.13c1-8.3,5.87-10.26,5.87-15.39,0-2.94-2.94-6.6-6.6-5.87a3.17,3.17,0,0,0-2.93,1.47A1.56,1.56,0,0,1,58.71,55.56Z" transform="translate(-38 -14)"/><path class="cls-13" d="M88,51.89l.73.74s12.46-1.47,16.86-1.47c5.13,0,13.93.73,13.93.73.44-.5.4-1-.54-1.33,0,0-8.26-.87-14.12-.87S88,51.89,88,51.89Z" transform="translate(-38 -14)"/></svg>